<svg width="50" height="50" viewBox="0 0 50 50" fill="none" xmlns="http://www.w3.org/2000/svg">
<mask id="mask0_54_125" style="mask-type:luminance" maskUnits="userSpaceOnUse" x="0" y="0" width="50" height="50">
<path d="M50 0H0V50H50V0Z" fill="white"/>
</mask>
<g mask="url(#mask0_54_125)">
<path d="M3.125 36.985H25.2075V41.4012H3.125V36.985Z" fill="#FFBF47"/>
<path d="M38.457 36.2487V41.4019H25.207V28.1519H28.1514V33.3044C28.1513 33.4977 28.1893 33.6892 28.2633 33.8678C28.3372 34.0465 28.4456 34.2088 28.5823 34.3455C28.719 34.4823 28.8813 34.5908 29.0599 34.6648C29.2385 34.7388 29.4299 34.7769 29.6233 34.7769H36.9845C37.3746 34.778 37.7484 34.9334 38.0243 35.2092C38.3001 35.485 38.4557 35.8587 38.457 36.2487Z" fill="#FFBF47"/>
<path d="M36.9845 34.7769H36.2483V35.5131C36.2483 35.9035 36.0932 36.2779 35.8172 36.5539C35.5412 36.8299 35.1668 36.985 34.7764 36.985H25.207V41.4019H38.457V36.2488C38.4557 35.8587 38.3001 35.485 38.0243 35.2092C37.7484 34.9335 37.3746 34.778 36.9845 34.7769Z" fill="#FF9811"/>
<path d="M4.59766 41.4019H39.9302V42.8737C39.9302 43.2641 39.7751 43.6385 39.4991 43.9145C39.223 44.1905 38.8486 44.3456 38.4583 44.3456H6.06953C5.67917 44.3456 5.30479 44.1905 5.02876 43.9145C4.75273 43.6385 4.59766 43.2641 4.59766 42.8737V41.4019Z" fill="#A7A9AC"/>
<path d="M29.6242 34.7769H36.2492L35.2923 30.4575C35.1469 29.803 34.7824 29.2177 34.2592 28.7985C33.736 28.3792 33.0853 28.1511 32.4148 28.1519H28.1523V33.3044C28.1523 33.4977 28.1903 33.6892 28.2642 33.8678C28.3381 34.0465 28.4465 34.2088 28.5832 34.3455C28.7199 34.4823 28.8822 34.5908 29.0608 34.6648C29.2394 34.7388 29.4309 34.7769 29.6242 34.7769Z" fill="#D1D3D4"/>
<path d="M32.1875 46.875C34.086 46.875 35.625 45.1961 35.625 43.125C35.625 41.0539 34.086 39.375 32.1875 39.375C30.289 39.375 28.75 41.0539 28.75 43.125C28.75 45.1961 30.289 46.875 32.1875 46.875Z" fill="#58595B"/>
<path d="M12.5 46.875C14.5711 46.875 16.25 45.1961 16.25 43.125C16.25 41.0539 14.5711 39.375 12.5 39.375C10.4289 39.375 8.75 41.0539 8.75 43.125C8.75 45.1961 10.4289 46.875 12.5 46.875Z" fill="#58595B"/>
<path d="M3.125 36.9856H25.2075V23.7356H3.125V36.9856Z" fill="#56A0DD"/>
<path d="M23 23.7356V25.9438C23 27.1038 22.7715 28.2525 22.3276 29.3242C21.8836 30.3959 21.2329 31.3697 20.4126 32.1899C19.5923 33.0102 18.6185 33.6608 17.5467 34.1047C16.475 34.5485 15.3263 34.777 14.1663 34.7769H3.125V36.9856H25.2075V23.7356H23Z" fill="#0080AD"/>
<path d="M16.3741 8.27749C16.3741 10.715 11.9579 14.9025 11.9579 14.9025C11.9579 14.9025 7.54102 10.7144 7.54102 8.27749C7.54102 7.10615 8.00633 5.98278 8.8346 5.15451C9.66286 4.32625 10.7862 3.86093 11.9576 3.86093C13.1289 3.86093 14.2523 4.32625 15.0806 5.15451C15.9088 5.98278 16.3741 7.10615 16.3741 8.27749Z" fill="#56A0DD"/>
<path d="M11.875 10C13.2557 10 14.375 9.16053 14.375 8.125C14.375 7.08947 13.2557 6.25 11.875 6.25C10.4943 6.25 9.375 7.08947 9.375 8.125C9.375 9.16053 10.4943 10 11.875 10Z" fill="#FFBF47"/>
<path d="M36.9843 4.59687C39.1311 4.59936 41.1892 5.4533 42.7072 6.97136C44.2251 8.48941 45.0789 10.5476 45.0812 12.6944C45.0868 12.8858 45.1668 13.0676 45.3042 13.2011C45.4416 13.3345 45.6256 13.4092 45.8171 13.4092C46.0087 13.4092 46.1927 13.3345 46.3301 13.2011C46.4675 13.0676 46.5475 12.8858 46.5531 12.6944C46.5503 10.1574 45.5413 7.72511 43.7474 5.93113C41.9535 4.13715 39.5213 3.12798 36.9843 3.125C36.7929 3.13058 36.6111 3.21056 36.4776 3.34797C36.3442 3.48538 36.2695 3.66939 36.2695 3.86094C36.2695 4.05249 36.3442 4.2365 36.4776 4.37391C36.6111 4.51131 36.7929 4.59129 36.9843 4.59687Z" fill="#FF5023"/>
<path d="M36.9843 10.4856C37.5699 10.4856 38.1315 10.7183 38.5456 11.1324C38.9597 11.5465 39.1924 12.1081 39.1924 12.6937C39.198 12.8852 39.278 13.067 39.4154 13.2004C39.5528 13.3339 39.7368 13.4085 39.9283 13.4085C40.1199 13.4085 40.3039 13.3339 40.4413 13.2004C40.5787 13.067 40.6587 12.8852 40.6643 12.6937C40.6623 11.7184 40.2739 10.7835 39.5842 10.0938C38.8945 9.40407 37.9596 9.01572 36.9843 9.01374C36.8858 9.01087 36.7878 9.02778 36.696 9.06348C36.6042 9.09917 36.5205 9.15292 36.4498 9.22154C36.3792 9.29016 36.323 9.37226 36.2847 9.46298C36.2463 9.5537 36.2266 9.65119 36.2266 9.74968C36.2266 9.84817 36.2463 9.94566 36.2847 10.0364C36.323 10.1271 36.3792 10.2092 36.4498 10.2778C36.5205 10.3464 36.6042 10.4002 36.696 10.4359C36.7878 10.4716 36.8858 10.4885 36.9843 10.4856Z" fill="#FF5023"/>
<path d="M36.9843 7.54125C38.3504 7.5429 39.6601 8.08637 40.626 9.05243C41.592 10.0185 42.1353 11.3282 42.1368 12.6944C42.1423 12.8858 42.2223 13.0676 42.3597 13.2011C42.4971 13.3345 42.6811 13.4092 42.8727 13.4092C43.0642 13.4092 43.2483 13.3345 43.3857 13.2011C43.5231 13.0676 43.6031 12.8858 43.6086 12.6944C43.6068 10.938 42.9083 9.25404 41.6664 8.01202C40.4245 6.77001 38.7407 6.07136 36.9843 6.06937C36.8858 6.0665 36.7878 6.08342 36.696 6.11911C36.6042 6.1548 36.5205 6.20855 36.4498 6.27717C36.3792 6.3458 36.323 6.4279 36.2847 6.51861C36.2463 6.60933 36.2266 6.70682 36.2266 6.80531C36.2266 6.9038 36.2463 7.00129 36.2847 7.09201C36.323 7.18273 36.3792 7.26483 36.4498 7.33345C36.5205 7.40207 36.6042 7.45582 36.696 7.49151C36.7878 7.5272 36.8858 7.54412 36.9843 7.54125Z" fill="#FF5023"/>
<path d="M27.4159 37.7206H28.1522C28.3436 37.7151 28.5254 37.6351 28.6588 37.4977C28.7923 37.3603 28.867 37.1762 28.867 36.9847C28.867 36.7931 28.7923 36.6091 28.6588 36.4717C28.5254 36.3343 28.3436 36.2543 28.1522 36.2488H27.4159C27.3175 36.2459 27.2194 36.2628 27.1276 36.2985C27.0358 36.3342 26.9521 36.3879 26.8815 36.4566C26.8108 36.5252 26.7547 36.6073 26.7163 36.698C26.678 36.7887 26.6582 36.8862 26.6582 36.9847C26.6582 37.0832 26.678 37.1807 26.7163 37.2714C26.7547 37.3621 26.8108 37.4442 26.8815 37.5128C26.9521 37.5815 27.0358 37.6352 27.1276 37.6709C27.2194 37.7066 27.3175 37.7235 27.4159 37.7206Z" fill="#F1F2F2"/>
<path d="M44.3477 24.4719H38.4577C38.2626 24.4715 38.0757 24.3938 37.9379 24.2558C37.8001 24.1178 37.7227 23.9307 37.7227 23.7356V14.1663C37.7227 13.8762 37.6655 13.589 37.5545 13.3211C37.4435 13.0532 37.2808 12.8097 37.0757 12.6047C36.8706 12.3996 36.6271 12.237 36.3591 12.126C36.0911 12.0151 35.8039 11.958 35.5139 11.9581H25.2083C24.6226 11.9581 24.061 12.1908 23.6469 12.6049C23.2328 13.019 23.0002 13.5806 23.0002 14.1663V19.3188C23.0002 19.514 22.9226 19.7013 22.7845 19.8394C22.6464 19.9774 22.4592 20.055 22.2639 20.055H13.4308C13.2355 20.055 13.0482 19.9774 12.9102 19.8394C12.7721 19.7013 12.6945 19.514 12.6945 19.3188V17.1106C12.689 16.9192 12.609 16.7374 12.4716 16.6039C12.3342 16.4705 12.1501 16.3958 11.9586 16.3958C11.767 16.3958 11.583 16.4705 11.4456 16.6039C11.3082 16.7374 11.2282 16.9192 11.2227 17.1106V19.3188C11.2227 19.9044 11.4553 20.466 11.8694 20.8801C12.2835 21.2942 12.8452 21.5269 13.4308 21.5269H22.2639C22.5539 21.527 22.8411 21.4699 23.1091 21.359C23.3771 21.248 23.6206 21.0854 23.8257 20.8804C24.0308 20.6753 24.1935 20.4319 24.3045 20.1639C24.4155 19.896 24.4727 19.6088 24.4727 19.3188V14.1663C24.4727 13.971 24.5502 13.7837 24.6883 13.6456C24.8264 13.5076 25.0136 13.43 25.2089 13.43H35.5139C35.7092 13.43 35.8964 13.5076 36.0345 13.6456C36.1726 13.7837 36.2502 13.971 36.2502 14.1663V23.7356C36.2502 24.3213 36.4828 24.8829 36.8969 25.297C37.311 25.7111 37.8727 25.9438 38.4583 25.9438H44.3477C44.5429 25.9438 44.7302 26.0213 44.8683 26.1594C45.0063 26.2975 45.0839 26.4847 45.0839 26.68V36.2494C45.0837 36.4445 45.0061 36.6316 44.868 36.7696C44.73 36.9075 44.5428 36.985 44.3477 36.985H40.6664C40.568 36.9821 40.4699 36.999 40.3781 37.0347C40.2863 37.0704 40.2026 37.1242 40.132 37.1928C40.0613 37.2614 40.0052 37.3435 39.9668 37.4342C39.9285 37.525 39.9087 37.6225 39.9087 37.7209C39.9087 37.8194 39.9285 37.9169 39.9668 38.0076C40.0052 38.0984 40.0613 38.1805 40.132 38.2491C40.2026 38.3177 40.2863 38.3714 40.3781 38.4071C40.4699 38.4428 40.568 38.4597 40.6664 38.4569H44.3477C44.9333 38.4569 45.4949 38.2242 45.909 37.8101C46.3231 37.396 46.5558 36.8344 46.5558 36.2488V26.68C46.5558 26.0944 46.3231 25.5327 45.909 25.1186C45.4949 24.7045 44.9333 24.4719 44.3477 24.4719Z" fill="#FFBF47"/>
</g>
</svg>
