<svg width="24" height="24" viewBox="0 0 24 24" fill="none" xmlns="http://www.w3.org/2000/svg">
<path d="M12 19.5C13.9891 19.5 15.8968 18.7098 17.3033 17.3033C18.7098 15.8968 19.5 13.9891 19.5 12C19.5 10.0109 18.7098 8.10322 17.3033 6.6967C15.8968 5.29018 13.9891 4.5 12 4.5C10.0109 4.5 8.10322 5.29018 6.6967 6.6967C5.29018 8.10322 4.5 10.0109 4.5 12C4.5 13.9891 5.29018 15.8968 6.6967 17.3033C8.10322 18.7098 10.0109 19.5 12 19.5ZM12 21C10.8181 21 9.64778 20.7672 8.55585 20.3149C7.46392 19.8626 6.47177 19.1997 5.63604 18.364C4.80031 17.5282 4.13738 16.5361 3.68508 15.4442C3.23279 14.3522 3 13.1819 3 12C3 10.8181 3.23279 9.64778 3.68508 8.55585C4.13738 7.46392 4.80031 6.47177 5.63604 5.63604C6.47177 4.80031 7.46392 4.13738 8.55585 3.68508C9.64778 3.23279 10.8181 3 12 3C14.3869 3 16.6761 3.94821 18.364 5.63604C20.0518 7.32387 21 9.61305 21 12C21 14.3869 20.0518 16.6761 18.364 18.364C16.6761 20.0518 14.3869 21 12 21Z" fill="white"/>
<path d="M6.85003 19.326L8.14903 20.076L7.02403 22.0245C6.97515 22.1105 6.90973 22.186 6.83156 22.2466C6.75339 22.3072 6.66401 22.3517 6.56855 22.3776C6.4731 22.4035 6.37346 22.4103 6.27538 22.3976C6.17729 22.3848 6.0827 22.3528 5.99704 22.3033C5.91138 22.2539 5.83635 22.188 5.77627 22.1094C5.71619 22.0308 5.67224 21.9411 5.64696 21.8455C5.62168 21.7499 5.61556 21.6502 5.62896 21.5522C5.64236 21.4542 5.67501 21.3598 5.72503 21.2745L6.85003 19.326ZM17.149 19.326L15.85 20.076L16.975 22.0245C17.0239 22.1105 17.0893 22.186 17.1675 22.2466C17.2457 22.3072 17.3351 22.3517 17.4305 22.3776C17.526 22.4035 17.6256 22.4103 17.7237 22.3976C17.8218 22.3848 17.9164 22.3528 18.002 22.3033C18.0877 22.2539 18.1627 22.188 18.2228 22.1094C18.2829 22.0308 18.3268 21.9411 18.3521 21.8455C18.3774 21.7499 18.3835 21.6502 18.3701 21.5522C18.3567 21.4542 18.3241 21.3598 18.274 21.2745L17.149 19.326ZM11.9995 12H15.7495C15.9484 12 16.1392 12.079 16.2799 12.2197C16.4205 12.3603 16.4995 12.5511 16.4995 12.75C16.4995 12.9489 16.4205 13.1397 16.2799 13.2803C16.1392 13.421 15.9484 13.5 15.7495 13.5H11.2495C11.0506 13.5 10.8599 13.421 10.7192 13.2803C10.5786 13.1397 10.4995 12.9489 10.4995 12.75V7.50001C10.4995 7.3011 10.5786 7.11033 10.7192 6.96968C10.8599 6.82903 11.0506 6.75001 11.2495 6.75001C11.4484 6.75001 11.6392 6.82903 11.7799 6.96968C11.9205 7.11033 11.9995 7.3011 11.9995 7.50001V12ZM2.12053 7.31851C1.64189 6.59724 1.42752 5.73259 1.51379 4.87126C1.60007 4.00993 1.98167 3.20498 2.59386 2.59297C3.20604 1.98096 4.01111 1.59959 4.87246 1.51356C5.73381 1.42754 6.5984 1.64216 7.31953 2.12101L6.22153 3.21901C5.80167 3.01849 5.32997 2.95306 4.87138 3.03174C4.4128 3.11042 3.98988 3.32934 3.66087 3.65835C3.33186 3.98736 3.11295 4.41027 3.03427 4.86886C2.95559 5.32745 3.02101 5.79915 3.22153 6.21901L2.12203 7.31851H2.12053ZM21.697 7.31851C22.175 6.59735 22.3889 5.7331 22.3025 4.87225C22.2161 4.01139 21.8347 3.2069 21.2229 2.59513C20.6111 1.98335 19.8066 1.60194 18.9458 1.51553C18.0849 1.42912 17.2207 1.64303 16.4995 2.12101L17.5975 3.21901C18.0174 3.01849 18.4891 2.95306 18.9477 3.03174C19.4063 3.11042 19.8292 3.32934 20.1582 3.65835C20.4872 3.98736 20.7061 4.41027 20.7848 4.86886C20.8635 5.32745 20.7981 5.79915 20.5975 6.21901L21.697 7.31851Z" fill="white"/>
</svg>
