<svg width="36" height="36" viewBox="0 0 36 36" fill="none" xmlns="http://www.w3.org/2000/svg">
<path d="M4.545 28.995C4.545 29.535 4.665 30.09 4.92 30.63C5.175 31.17 5.505 31.68 5.94 32.16C6.675 32.97 7.485 33.555 8.4 33.93C9.3 34.305 10.275 34.5 11.325 34.5C12.855 34.5 14.49 34.14 16.215 33.405C17.94 32.67 19.665 31.68 21.375 30.435C23.1 29.175 24.735 27.78 26.295 26.235C27.84 24.675 29.235 23.04 30.48 21.33C31.71 19.62 32.7 17.91 33.42 16.215C34.14 14.505 34.5 12.87 34.5 11.31C34.5 10.29 34.32 9.315 33.96 8.415C33.6 7.5 33.03 6.66 32.235 5.91C31.275 4.965 30.225 4.5 29.115 4.5C28.695 4.5 28.275 4.59 27.9 4.77C27.51 4.95 27.165 5.22 26.895 5.61L23.415 10.515C23.145 10.89 22.95 11.235 22.815 11.565C22.68 11.88 22.605 12.195 22.605 12.48C22.605 12.84 22.71 13.2 22.92 13.545C23.115 13.89 23.4 14.25 23.76 14.61L24.9 15.795C25.065 15.96 25.14 16.155 25.14 16.395C25.14 16.515 25.125 16.62 25.095 16.74C25.05 16.86 25.005 16.95 24.975 17.04C24.705 17.535 24.24 18.18 23.58 18.96C22.905 19.74 22.185 20.535 21.405 21.33C20.595 22.125 19.815 22.86 19.02 23.535C18.24 24.195 17.595 24.645 17.085 24.915C17.01 24.945 16.92 24.99 16.815 25.035C16.695 25.08 16.575 25.095 16.44 25.095C16.185 25.095 15.99 25.005 15.825 24.84L14.685 23.715C14.31 23.34 13.95 23.055 13.605 22.875C13.26 22.665 12.915 22.56 12.54 22.56C12.255 22.56 11.955 22.62 11.625 22.755C11.295 22.89 10.95 23.085 10.575 23.34L5.61 26.865C5.22 27.135 4.95 27.45 4.785 27.825C4.635 28.2 4.545 28.575 4.545 28.995Z" stroke="#DADDDE" stroke-width="1.8" stroke-miterlimit="10"/>
<path d="M9.75 15C9.75 14.1 10.455 12.72 11.505 11.595C12.465 10.56 13.74 9.75 15 9.75" stroke="#DADDDE" stroke-width="1.8" stroke-linecap="round" stroke-linejoin="round"/>
<path d="M4.5 15C4.5 9.195 9.195 4.5 15 4.5" stroke="#DADDDE" stroke-width="1.8" stroke-linecap="round" stroke-linejoin="round"/>
</svg>
