<svg width="30" height="31" viewBox="0 0 30 31" fill="none" xmlns="http://www.w3.org/2000/svg">
<path d="M18.2301 27.7036C17.9977 27.7616 17.7604 27.8126 17.5252 27.856C17.3788 27.883 17.2391 27.9387 17.1142 28.0196C16.9893 28.1006 16.8816 28.2054 16.7972 28.3279C16.7128 28.4505 16.6535 28.5884 16.6225 28.7339C16.5915 28.8793 16.5895 29.0294 16.6166 29.1757C16.6437 29.3219 16.6994 29.4614 16.7805 29.5861C16.8616 29.7108 16.9665 29.8184 17.0892 29.9026C17.212 29.9869 17.3501 30.0462 17.4958 30.0771C17.6414 30.1081 17.7918 30.1101 17.9382 30.083C18.2182 30.0313 18.4982 29.9697 18.7782 29.9005C19.0637 29.8222 19.3071 29.6355 19.4566 29.3803C19.606 29.1252 19.6497 28.8218 19.5781 28.5349C19.5065 28.2481 19.3255 28.0005 19.0736 27.8452C18.8217 27.6899 18.519 27.6391 18.2301 27.7036Z" fill="white"/>
<path d="M27.1222 11.1542C27.2167 11.4393 27.4208 11.6752 27.6895 11.8101C27.9582 11.945 28.2696 11.9678 28.5551 11.8734C28.8406 11.7791 29.0769 11.5753 29.212 11.307C29.3471 11.0386 29.3699 10.7277 29.2754 10.4426C29.1858 10.1721 29.0864 9.90086 28.9807 9.63664C28.9287 9.49423 28.8487 9.36368 28.7452 9.25274C28.6418 9.14179 28.5171 9.05271 28.3786 8.99078C28.24 8.92885 28.0904 8.89534 27.9386 8.89221C27.7869 8.88908 27.636 8.9164 27.4951 8.97257C27.3541 9.02873 27.2258 9.1126 27.1179 9.21918C27.0099 9.32576 26.9245 9.4529 26.8667 9.59305C26.8089 9.7332 26.7799 9.88353 26.7813 10.0351C26.7827 10.1867 26.8146 10.3364 26.8751 10.4754C26.9612 10.6998 27.0466 10.9277 27.1222 11.1542Z" fill="white"/>
<path d="M22.1228 26.0896C21.9226 26.2217 21.7161 26.3489 21.5082 26.4684C21.3766 26.5414 21.2609 26.6398 21.1679 26.7578C21.0748 26.8759 21.0061 27.0113 20.966 27.1561C20.9258 27.3009 20.9149 27.4522 20.9339 27.6013C20.9529 27.7504 21.0014 27.8942 21.0766 28.0243C21.1518 28.1545 21.2522 28.2684 21.3719 28.3594C21.4916 28.4504 21.6283 28.5167 21.7739 28.5545C21.9196 28.5922 22.0713 28.6006 22.2203 28.5792C22.3692 28.5578 22.5124 28.5071 22.6415 28.4298C22.8886 28.29 23.1315 28.1362 23.373 27.9783C23.6102 27.8071 23.772 27.551 23.8245 27.2635C23.877 26.976 23.8162 26.6794 23.6547 26.4356C23.4933 26.1919 23.2437 26.0199 22.9582 25.9557C22.6727 25.8914 22.3733 25.9399 22.1228 26.091V26.0896Z" fill="white"/>
<path d="M29.9797 14.6715C29.9764 14.5212 29.9432 14.373 29.882 14.2355C29.8208 14.0981 29.7328 13.9743 29.6231 13.8712C29.5134 13.7681 29.3843 13.6879 29.2432 13.6352C29.1021 13.5825 28.952 13.5585 28.8015 13.5643C28.651 13.5702 28.5032 13.606 28.3667 13.6696C28.2302 13.7331 28.1077 13.8232 28.0065 13.9345C27.9052 14.0459 27.8272 14.1762 27.7769 14.318C27.7266 14.4598 27.7052 14.6101 27.7138 14.7603C27.7229 14.9994 27.7257 15.2419 27.7201 15.4803C27.7151 15.6299 27.7399 15.7791 27.793 15.9192C27.8461 16.0592 27.9266 16.1874 28.0296 16.2962C28.1327 16.405 28.2563 16.4923 28.3934 16.553C28.5305 16.6138 28.6783 16.6468 28.8282 16.6501C28.9782 16.6534 29.1273 16.627 29.2669 16.5724C29.4066 16.5178 29.534 16.4361 29.6418 16.332C29.7496 16.2278 29.8357 16.1034 29.895 15.9658C29.9543 15.8283 29.9857 15.6804 29.9874 15.5306C29.993 15.2454 29.9909 14.956 29.9797 14.6715Z" fill="white"/>
<path d="M26.9355 22.7568C26.8164 22.6675 26.6808 22.6025 26.5365 22.5655C26.3923 22.5286 26.2421 22.5204 26.0947 22.5414C25.9472 22.5624 25.8054 22.6123 25.6772 22.6881C25.5491 22.7639 25.4372 22.8642 25.3479 22.9833C25.2037 23.1748 25.0525 23.3642 24.8971 23.546C24.7024 23.7746 24.6066 24.0711 24.6306 24.3703C24.6546 24.6695 24.7965 24.9469 25.0252 25.1418C25.0525 25.1648 25.0798 25.1858 25.1085 25.2061C25.3397 25.3683 25.6232 25.4386 25.9035 25.403C26.1838 25.3675 26.4408 25.2287 26.624 25.0139C26.8095 24.7965 26.9901 24.5707 27.1623 24.3414C27.3425 24.1012 27.4199 23.7994 27.3773 23.5022C27.3348 23.2051 27.1759 22.937 26.9355 22.7568Z" fill="white"/>
<path d="M28.604 18.3518C28.3171 18.2621 28.0062 18.2898 27.7398 18.4289C27.4733 18.5679 27.273 18.807 27.183 19.0935C27.113 19.3213 27.0319 19.5506 26.9465 19.775C26.8454 20.0542 26.8582 20.362 26.9821 20.6319C27.106 20.9018 27.3311 21.1123 27.6089 21.2181C27.8868 21.3238 28.1951 21.3164 28.4675 21.1974C28.7399 21.0783 28.9546 20.8572 29.0653 20.5816C29.1668 20.3146 29.2614 20.0427 29.3454 19.7715C29.4355 19.4851 29.4081 19.1746 29.269 18.9084C29.13 18.6422 28.8908 18.442 28.604 18.3518Z" fill="white"/>
<path d="M13.1261 27.705C12.0659 27.5117 11.0362 27.1787 10.0641 26.7145C10.0529 26.7082 10.0424 26.7012 10.0304 26.6956C9.80148 26.5859 9.57321 26.4684 9.35195 26.3461C8.94145 26.1165 8.54405 25.8642 8.1616 25.5905C5.45432 23.617 3.62503 20.667 3.06275 17.368C2.50047 14.0689 3.24956 10.681 5.15072 7.92476C5.98196 6.72063 7.01832 5.67138 8.21272 4.82471L8.25543 4.79465C10.298 3.3572 12.7312 2.57595 15.2302 2.55522C17.7292 2.53449 20.1751 3.27525 22.2413 4.67862L21.3087 6.05005C21.0496 6.4317 21.2092 6.70991 21.663 6.66866L25.7143 6.29959C25.8181 6.29333 25.919 6.2634 26.0093 6.2121C26.0996 6.1608 26.1769 6.08949 26.2353 6.00368C26.2936 5.91786 26.3315 5.81982 26.346 5.7171C26.3604 5.61438 26.3511 5.50972 26.3186 5.41117L25.2305 1.4213C25.1087 0.973937 24.7971 0.920814 24.5373 1.30247L23.6018 2.67669C20.4503 0.505857 16.5674 -0.334261 12.7984 0.339248C12.416 0.406352 12.0391 0.488135 11.6675 0.584596H11.6598L11.6171 0.597178C8.33425 1.45787 5.45054 3.42535 3.45482 6.16609C3.43732 6.18706 3.41981 6.20733 3.40371 6.22969C3.33369 6.32266 3.26857 6.41773 3.20275 6.50929C3.09492 6.66517 2.98919 6.82454 2.88766 6.98391C2.87505 7.00348 2.86525 7.02236 2.85405 7.04193C1.17951 9.67699 0.358083 12.7628 0.501356 15.88C0.501356 15.8905 0.501356 15.9003 0.501356 15.9115C0.51466 16.2163 0.538467 16.5252 0.571377 16.8293C0.571377 16.8489 0.577679 16.8677 0.58048 16.8873C0.614089 17.1935 0.655402 17.4996 0.707917 17.8065C1.2189 20.8798 2.67005 23.7199 4.86223 25.9372L4.87764 25.9533L4.88324 25.9582C5.47225 26.5489 6.10928 27.0899 6.7878 27.5757C8.54806 28.846 10.5706 29.7075 12.7073 30.0969C12.8628 30.1242 13.022 30.1205 13.176 30.0859C13.33 30.0514 13.4756 29.9868 13.6044 29.8958C13.7332 29.8049 13.8427 29.6893 13.9266 29.5559C14.0105 29.4224 14.067 29.2737 14.093 29.1183C14.1517 28.803 14.0829 28.4773 13.9017 28.2125C13.7205 27.9476 13.4416 27.7652 13.1261 27.705Z" fill="white"/>
<path d="M14.7695 5.79578C14.5261 5.79578 14.2926 5.89233 14.1204 6.06418C13.9483 6.23604 13.8516 6.46912 13.8516 6.71216V15.8376L22.2134 20.1532C22.4287 20.2569 22.6761 20.2725 22.9028 20.1968C23.1296 20.1212 23.3177 19.9601 23.4273 19.748C23.5368 19.5358 23.559 19.2894 23.4893 19.0611C23.4195 18.8329 23.2632 18.6408 23.0537 18.5259L15.6854 14.722V6.71077C15.6852 6.46828 15.5887 6.23576 15.417 6.06423C15.2453 5.89269 15.0124 5.79615 14.7695 5.79578Z" fill="white"/>
</svg>
