<svg width="30" height="36" viewBox="0 0 30 36" fill="none" xmlns="http://www.w3.org/2000/svg">
<path d="M25.4653 4.96581H22.236V3.52378C22.236 3.05685 21.7263 2.84505 21.2557 2.84505H18.749C18.4798 2.0691 17.9657 1.40127 17.2839 0.941857C16.6021 0.48244 15.7894 0.256234 14.9679 0.297209C14.1488 0.266558 13.3411 0.496565 12.6615 0.954021C11.9818 1.41148 11.4654 2.07271 11.1868 2.84226H8.72205C8.25431 2.84226 7.78727 3.05196 7.78727 3.52098V4.96581H4.55933C3.63725 4.97514 2.75368 5.3362 2.08971 5.97498C1.42575 6.61376 1.03168 7.48187 0.988281 8.40138V32.7083C1.03738 33.6072 1.44019 34.4503 2.10902 35.054C2.77785 35.6578 3.65853 35.9734 4.55933 35.9321H25.4653C26.3661 35.9734 27.2468 35.6578 27.9157 35.054C28.5845 34.4503 28.9873 33.6072 29.0364 32.7083V8.40557C28.994 7.48532 28.6004 6.61616 27.9364 5.9765C27.2723 5.33684 26.3881 4.9752 25.4653 4.96581ZM9.48807 4.54222H11.8254C12.0242 4.51801 12.2099 4.4307 12.3553 4.29315C12.5006 4.15561 12.5979 3.9751 12.6327 3.77821C12.7551 3.24679 13.0508 2.771 13.4735 2.4256C13.8962 2.0802 14.4218 1.88475 14.9679 1.86995C15.5093 1.88584 16.0298 2.08246 16.4461 2.42838C16.8625 2.77431 17.1506 3.24957 17.2645 3.77821C17.3016 3.98142 17.4052 4.1666 17.559 4.30473C17.7129 4.44286 17.9083 4.52614 18.1146 4.54152H20.5366V7.93515H9.48807V4.54222ZM27.3349 32.7118C27.2859 33.1601 27.0626 33.5714 26.7129 33.857C26.3633 34.1427 25.9153 34.2799 25.4653 34.2391H4.55933C4.10938 34.2799 3.66139 34.1427 3.31174 33.857C2.9621 33.5714 2.73876 33.1601 2.68978 32.7118V8.40557C2.73167 7.93655 2.94574 7.49953 3.29083 7.17851C3.63593 6.85749 4.08771 6.67513 4.55933 6.66647H7.78867V8.82497C7.81039 9.05369 7.91974 9.26519 8.09391 9.41536C8.26808 9.56553 8.49362 9.64275 8.72345 9.63091H21.2571C21.4922 9.6445 21.7237 9.56905 21.9054 9.41963C22.0871 9.27022 22.2057 9.05785 22.2374 8.82497V6.65808H25.4668C25.9384 6.66674 26.3901 6.8491 26.7352 7.17012C27.0803 7.49114 27.2944 7.92816 27.3363 8.39718V32.7083L27.3349 32.7118Z" fill="white"/>
<path d="M11.7403 19.2617C11.5871 19.1004 11.3765 19.0055 11.1539 18.9975C10.9313 18.9895 10.7144 19.0691 10.55 19.2191L7.83039 21.8054L6.68345 20.6171C6.5302 20.4557 6.31962 20.3608 6.09701 20.3528C5.87439 20.3449 5.65754 20.4244 5.4931 20.5745C5.33456 20.7401 5.24609 20.9604 5.24609 21.1896C5.24609 21.4187 5.33456 21.639 5.4931 21.8047L7.23521 23.5864C7.30973 23.6697 7.40165 23.7357 7.50449 23.7796C7.60733 23.8236 7.71858 23.8445 7.83039 23.8409C8.05465 23.8378 8.2686 23.7464 8.42556 23.5864L11.7396 20.4472C11.8974 20.3027 11.9912 20.1016 12.0004 19.888C12.0095 19.6745 11.9334 19.4661 11.7886 19.3086C11.7737 19.2927 11.7576 19.2771 11.7403 19.2617Z" fill="white"/>
<path d="M23.9363 21.0854H14.1635C13.9424 21.0918 13.7325 21.1839 13.5783 21.3423C13.4241 21.5007 13.3379 21.7128 13.3379 21.9337C13.3379 22.1545 13.4241 22.3667 13.5783 22.525C13.7325 22.6834 13.9424 22.7756 14.1635 22.7819H23.937C24.1581 22.7756 24.3681 22.6834 24.5223 22.525C24.6764 22.3667 24.7627 22.1545 24.7627 21.9337C24.7627 21.7128 24.6764 21.5007 24.5223 21.3423C24.3681 21.1839 24.1581 21.0918 23.937 21.0854H23.9363Z" fill="white"/>
<path d="M11.7403 12.476C11.5871 12.3146 11.3765 12.2197 11.1539 12.2117C10.9313 12.2038 10.7144 12.2833 10.55 12.4333L7.83039 15.0196L6.68345 13.8313C6.5302 13.6699 6.31962 13.5751 6.09701 13.5671C5.87439 13.5591 5.65754 13.6387 5.4931 13.7887C5.33456 13.9544 5.24609 14.1747 5.24609 14.4038C5.24609 14.6329 5.33456 14.8533 5.4931 15.0189L7.23521 16.8007C7.30973 16.884 7.40165 16.9499 7.50449 16.9939C7.60733 17.0378 7.71858 17.0587 7.83039 17.0551C8.05465 17.0521 8.2686 16.9606 8.42556 16.8007L11.7396 13.6615C11.8974 13.517 11.9912 13.3158 12.0004 13.1023C12.0095 12.8887 11.9334 12.6803 11.7886 12.5228C11.7737 12.506 11.7576 12.4904 11.7403 12.476Z" fill="white"/>
<path d="M23.9363 14.2982H14.1635C13.9424 14.3045 13.7325 14.3967 13.5783 14.5551C13.4241 14.7134 13.3379 14.9256 13.3379 15.1464C13.3379 15.3673 13.4241 15.5794 13.5783 15.7378C13.7325 15.8962 13.9424 15.9883 14.1635 15.9947H23.937C24.0506 15.9979 24.1638 15.9784 24.2697 15.9372C24.3757 15.8961 24.4723 15.8341 24.5538 15.755C24.6353 15.6759 24.7001 15.5813 24.7444 15.4768C24.7886 15.3723 24.8115 15.2599 24.8115 15.1464C24.8115 15.0329 24.7886 14.9206 24.7444 14.8161C24.7001 14.7115 24.6353 14.6169 24.5538 14.5378C24.4723 14.4588 24.3757 14.3968 24.2697 14.3556C24.1638 14.3145 24.0506 14.2949 23.937 14.2982H23.9363Z" fill="white"/>
<path d="M11.7403 26.0483C11.5871 25.8869 11.3765 25.792 11.1539 25.784C10.9313 25.776 10.7144 25.8556 10.55 26.0056L7.83039 28.5919L6.68345 27.4036C6.5302 27.2422 6.31962 27.1473 6.09701 27.1393C5.87439 27.1314 5.65754 27.211 5.4931 27.361C5.33456 27.5266 5.24609 27.747 5.24609 27.9761C5.24609 28.2052 5.33456 28.4255 5.4931 28.5912L7.23521 30.3729C7.30973 30.4562 7.40165 30.5222 7.50449 30.5662C7.60733 30.6101 7.71858 30.631 7.83039 30.6274C8.05463 30.6243 8.26856 30.5328 8.42556 30.3729L11.7396 27.2337C11.8974 27.0892 11.9912 26.8881 12.0004 26.6745C12.0095 26.461 11.9334 26.2526 11.7886 26.0951C11.7737 26.0797 11.7576 26.0641 11.7403 26.0483Z" fill="white"/>
<path d="M23.9363 27.8721H14.1635C14.0499 27.8688 13.9367 27.8883 13.8308 27.9295C13.7248 27.9706 13.6282 28.0326 13.5467 28.1117C13.4652 28.1908 13.4004 28.2854 13.3561 28.3899C13.3119 28.4945 13.2891 28.6068 13.2891 28.7203C13.2891 28.8338 13.3119 28.9461 13.3561 29.0506C13.4004 29.1552 13.4652 29.2498 13.5467 29.3289C13.6282 29.4079 13.7248 29.4699 13.8308 29.5111C13.9367 29.5522 14.0499 29.5718 14.1635 29.5685H23.937C24.0506 29.5718 24.1637 29.5522 24.2697 29.5111C24.3756 29.4699 24.4722 29.4079 24.5537 29.3289C24.6353 29.2498 24.7001 29.1552 24.7443 29.0506C24.7886 28.9461 24.8114 28.8338 24.8114 28.7203C24.8114 28.6068 24.7886 28.4945 24.7443 28.3899C24.7001 28.2854 24.6353 28.1908 24.5537 28.1117C24.4722 28.0326 24.3756 27.9706 24.2697 27.9295C24.1637 27.8883 24.0506 27.8688 23.937 27.8721H23.9363Z" fill="white"/>
</svg>
