<svg width="38" height="38" viewBox="0 0 38 38" fill="none" xmlns="http://www.w3.org/2000/svg">
<path d="M15.1919 25.9192C14.8831 25.6104 14.3844 25.6104 14.0756 25.9192C13.7669 26.2279 13.7669 26.7267 14.0756 27.0354L14.7248 27.6846H4.74186C4.30645 27.6846 3.9502 28.0725 3.9502 28.4763C3.9502 28.9117 4.30645 29.2679 4.74186 29.2679H14.7248L14.0835 29.9171C13.7748 30.2259 13.7748 30.7246 14.0835 31.0334C14.3923 31.3421 14.891 31.3421 15.1998 31.0334L17.1948 29.0384C17.3531 28.88 17.4244 28.6821 17.4244 28.4763C17.4244 28.2704 17.3452 28.0725 17.1948 27.9142L15.1919 25.9113V25.9192Z" fill="black"/>
<path d="M3.81538 16.3241C3.81538 17.0287 4.24288 17.6462 4.89996 17.8916L8.69996 19.3166C9.75288 19.7125 10.8612 19.9104 11.9933 19.9104H15.8645L13.83 21.7075C13.5133 21.9925 13.4104 22.4437 13.5766 22.8396C13.735 23.2037 14.0912 23.4412 14.487 23.4412H14.5662L16.1733 23.3146C16.5137 23.2908 16.8541 23.18 17.155 23.0137L22.6095 19.9183H29.7662C30.6766 19.9183 31.5554 19.7362 32.3945 19.38L32.4895 19.3404C33.1941 19.0633 33.6454 18.3825 33.6454 17.6225C33.6454 16.9021 33.2337 16.245 32.5925 15.9521L31.1991 15.2791C29.8295 14.6141 28.2779 14.2579 26.7262 14.2579H10.7662L7.16413 9.37332C6.94246 9.07248 6.58621 8.89832 6.21413 8.89832H4.74954C4.36954 8.89832 4.01329 9.0804 3.79163 9.38915C3.56996 9.68998 3.50663 10.0858 3.60954 10.4262L4.88413 14.7487L4.80496 14.8041C4.19538 15.0733 3.80746 15.6671 3.80746 16.34L3.81538 16.3241ZM6.01621 10.4737L9.97454 15.8333H26.7104C28.0404 15.8333 29.315 16.1262 30.4945 16.6962L31.9037 17.3691C31.9987 17.4087 32.0462 17.5037 32.0462 17.6146C32.0462 17.7254 31.9829 17.8204 31.8641 17.8679L31.7533 17.9154C31.12 18.1846 30.4391 18.3271 29.7504 18.3271H22.1741L16.3554 21.6283C16.3554 21.6283 16.2762 21.6679 16.2287 21.6837L20.0287 18.3271H11.9854C11.0512 18.3271 10.1329 18.1608 9.25413 17.8283L5.45413 16.4033C5.45413 16.4033 5.39871 16.3796 5.39871 16.3241C5.39871 16.2529 5.44621 16.2371 5.46996 16.2291L6.72079 15.3504L5.27996 10.4737H6.01621Z" fill="black"/>
<path d="M8.9771 9.30208C9.41252 9.66625 10.0617 9.46833 10.2438 8.93C10.7663 7.33083 11.7163 5.89792 13.0146 4.77375C14.9067 3.12708 17.3292 2.3275 19.8229 2.50958C24.9767 2.88958 28.8717 7.41792 28.4917 12.6033C28.46 13.0387 28.7846 13.4187 29.22 13.4504C29.4734 13.4662 29.7029 13.3475 29.8613 13.1733C29.8771 13.1575 29.8929 13.1575 29.9009 13.1417L31.5634 11.2337C31.8484 10.9012 31.8167 10.4025 31.4842 10.1175C31.1517 9.8325 30.6529 9.86417 30.3679 10.1967L30.0117 10.6083C29.4021 5.48625 25.2459 1.33 19.9338 0.942084C17.0125 0.720417 14.1863 1.67042 11.9696 3.59417C10.4417 4.91625 9.33335 6.6025 8.72377 8.47875C8.62877 8.77958 8.72377 9.11208 8.96919 9.31792L8.9771 9.30208Z" fill="black"/>
<path d="M22.2225 4.52043C22.167 4.48876 22.1116 4.48085 22.0562 4.4571C21.1695 4.11668 20.2037 3.91876 19.1983 3.91876C18.1929 3.91876 17.227 4.11668 16.3325 4.4571C16.277 4.47293 16.2216 4.48876 16.1662 4.52043C14.67 5.13001 13.4033 6.18293 12.5166 7.51293C11.6775 8.7796 11.1787 10.2996 11.1787 11.9304C11.1787 12.3658 11.535 12.7221 11.9704 12.7221H26.4104C26.8458 12.7221 27.202 12.3658 27.202 11.9304C27.202 8.58168 25.1358 5.71585 22.2145 4.52043H22.2225ZM23.8691 7.53668C23.6554 7.58418 23.4337 7.62376 23.212 7.66335C23.1645 7.37835 23.117 7.08543 23.0537 6.80835C23.3466 7.03001 23.6158 7.27543 23.8691 7.53668ZM25.5633 11.1388H23.5762C23.5525 10.4975 23.505 9.86418 23.4337 9.23085C23.9166 9.14376 24.3916 9.03293 24.8587 8.91418C25.2229 9.59501 25.4604 10.3471 25.5633 11.1388ZM13.5141 8.9221C13.9812 9.04085 14.4562 9.14376 14.9391 9.23876C14.8679 9.8721 14.8204 10.5054 14.7966 11.1467H12.8095C12.9045 10.355 13.15 9.60293 13.5062 8.93001L13.5141 8.9221ZM18.3987 5.55751V8.02751C17.8445 8.01168 17.2904 7.96418 16.7362 7.90876C16.8629 7.19626 17.0212 6.4996 17.2112 5.81876C17.5912 5.6921 17.987 5.60501 18.3987 5.55751ZM21.1695 5.81876C21.3595 6.4996 21.5179 7.19626 21.6445 7.90876C21.0904 7.9721 20.5362 8.00376 19.982 8.02751V5.56543C20.3937 5.61293 20.7895 5.70001 21.1695 5.82668V5.81876ZM16.5145 9.46043C17.14 9.53168 17.7733 9.57918 18.4066 9.59501V11.1308H16.3958C16.4195 10.5688 16.4591 10.0146 16.5225 9.45251L16.5145 9.46043ZM19.99 9.60293C20.6233 9.57918 21.2566 9.5396 21.882 9.46043C21.9454 10.0146 21.985 10.5767 22.0087 11.1388H19.9979V9.60293H19.99ZM15.335 6.80835C15.2716 7.09335 15.232 7.37835 15.1766 7.67126C14.955 7.63168 14.7333 7.5921 14.5195 7.5446C14.7729 7.27543 15.042 7.03001 15.335 6.81626V6.80835Z" fill="black"/>
<path d="M35.5699 24.1854C35.5699 24.1854 35.5462 24.1458 35.5382 24.1221C35.5066 24.0508 35.467 23.9954 35.4116 23.94C35.4037 23.9242 35.3957 23.9084 35.3799 23.8925C35.3245 23.8371 35.2612 23.7896 35.182 23.7579L30.2341 21.3038C30.0124 21.1929 29.7512 21.1929 29.5374 21.3038C28.9516 21.5967 28.9516 22.4279 29.5374 22.7129L33.0524 24.4625L32.5616 24.7079L26.1412 21.5175C25.6978 21.2959 25.1753 21.2959 24.732 21.5175L20.2274 23.7579C19.9582 23.8846 19.792 24.1617 19.792 24.4625C19.792 24.4942 19.7999 24.5179 19.7999 24.5496V32.8304C19.7999 33.1313 19.9741 33.4083 20.2432 33.5429L27.2891 37.05H27.297L27.3603 37.0896H27.3841C27.487 37.1371 27.5978 37.1688 27.7087 37.1688H27.7166C27.8353 37.1688 27.9462 37.1371 28.0491 37.0896H28.057L28.0966 37.0658C28.0966 37.0658 28.1203 37.0579 28.1362 37.05L35.182 33.5429C35.4512 33.4083 35.6253 33.1313 35.6253 32.8304V24.4625C35.6253 24.3675 35.6016 24.2725 35.5699 24.1854ZM31.0178 27.2413L31.7699 26.8692V28.5634L31.0178 28.9434V27.2413ZM25.4366 22.9346L30.7803 25.5946L30.2341 25.8638L24.8903 23.2117L25.4366 22.9346ZM26.917 35.0946L21.3832 32.3475V25.745L26.917 28.4842V35.0946ZM27.7087 27.1146L22.3649 24.4625L23.1091 24.0904L28.4449 26.7504L27.7087 27.1146ZM34.042 32.3475L28.5003 35.1025V28.4921L29.4345 28.025V30.2179C29.4345 30.495 29.577 30.7484 29.8066 30.8909C29.9332 30.97 30.0757 31.0096 30.2262 31.0096C30.3449 31.0096 30.4637 30.9858 30.5745 30.9304L32.9178 29.7667C33.187 29.6321 33.3532 29.3629 33.3532 29.0621V26.0854L34.042 25.745V32.3475Z" fill="black"/>
</svg>
