<svg width="38" height="38" viewBox="0 0 38 38" fill="none" xmlns="http://www.w3.org/2000/svg">
<path d="M28.2992 17.9697H25.8285L20.7431 12.8703C21.1831 12.8448 21.5385 12.48 21.5385 12.0303V11.1818C21.5385 10.7152 21.1577 10.3333 20.6923 10.3333C20.2269 10.3333 19.8462 10.7152 19.8462 11.1818H18.1538V9.48485H19.8462C20.3115 9.48485 20.6923 9.10303 20.6923 8.63636V6.09091H21.1154C21.5808 6.09091 21.9615 5.70909 21.9615 5.24242V1.84848C21.9615 1.38182 21.5808 1 21.1154 1H17.7308C17.2654 1 16.8846 1.38182 16.8846 1.84848V5.24242C16.8846 5.70909 17.2654 6.09091 17.7308 6.09091H19V7.78788H17.3077C16.8423 7.78788 16.4615 8.1697 16.4615 8.63636V12.0303C16.4615 12.48 16.8169 12.8448 17.2569 12.8703L12.1715 17.9697H9.69231C8.76154 17.9697 8 18.7333 8 19.6667V27.303C8 28.2364 8.76154 29 9.69231 29C10.1577 29 10.5385 28.6182 10.5385 28.1515C10.5385 27.6848 10.1577 27.303 9.69231 27.303V19.6667H11.3846V25.6061C11.3846 26.0727 11.7654 26.4545 12.2308 26.4545C12.6962 26.4545 13.0769 26.0727 13.0769 25.6061V19.6667H14.7692V23.9091C14.7692 24.3758 15.15 24.7576 15.6154 24.7576C16.0808 24.7576 16.4615 24.3758 16.4615 23.9091V19.6667H18.1538V25.6061C18.1538 26.0727 18.5346 26.4545 19 26.4545C19.4654 26.4545 19.8462 26.0727 19.8462 25.6061V19.6667H21.5385V25.6061C21.5385 26.0727 21.9192 26.4545 22.3846 26.4545C22.85 26.4545 23.2308 26.0727 23.2308 25.6061V19.6667H24.9231V25.6061C24.9231 26.0727 25.3038 26.4545 25.7692 26.4545C26.2346 26.4545 26.6154 26.0727 26.6154 25.6061V19.6667H28.3077V27.303C27.8423 27.303 27.4615 27.6848 27.4615 28.1515C27.4615 28.6182 27.8423 29 28.3077 29C29.2385 29 30 28.2364 30 27.303V19.6667C30 18.7333 29.2385 17.9697 28.3077 17.9697H28.2992ZM18.5685 4.39394V2.69697H20.2608V4.39394H18.5685ZM14.5577 17.9697L19 13.5152L23.4423 17.9697H14.5662H14.5577Z" fill="#56A0DD"/>
<path d="M23.955 28H19.9009C19.4054 28 19 28.373 19 28.8288C19 29.2847 19.4054 29.6576 19.9009 29.6576H23.955C25.1982 29.6576 26.2072 30.5859 26.2072 31.7297C26.2072 32.8735 25.1982 33.8018 23.955 33.8018H23.4144L23.5405 33.6857C23.8829 33.3708 23.8829 32.8652 23.5495 32.542C23.5495 32.542 23.5405 32.5337 23.5315 32.5254C23.1892 32.1938 22.6216 32.1938 22.2703 32.5171L20.6036 34.0504C20.2523 34.3737 20.2523 34.8958 20.6036 35.2191L22.2793 36.7607C22.6306 37.0839 23.1892 37.0756 23.5315 36.7607C23.5315 36.7607 23.5405 36.7524 23.5495 36.7441C23.8919 36.4208 23.8919 35.907 23.5495 35.592L23.4144 35.4677H23.9459C26.1802 35.4677 28 33.7935 28 31.738C28 29.6825 26.1802 28.0083 23.9459 28.0083L23.955 28Z" fill="#56A0DD"/>
<path d="M18.091 33.3408H14.041C12.799 33.3408 11.791 32.4117 11.791 31.2669C11.791 30.122 12.799 29.1929 14.041 29.1929H14.581L14.455 29.309C14.113 29.6243 14.113 30.1303 14.446 30.4539L14.464 30.4705C14.806 30.8023 15.373 30.8023 15.724 30.4787L17.389 28.9523C17.74 28.6288 17.74 28.1061 17.389 27.7826L15.715 26.2396C15.364 25.916 14.806 25.9243 14.464 26.2396C14.464 26.2396 14.455 26.2478 14.446 26.2561C14.104 26.5797 14.104 27.094 14.446 27.4093L14.581 27.5337H14.05C11.818 27.5337 10 29.2095 10 31.2669C10 33.3242 11.818 35 14.05 35H18.1C18.595 35 19 34.6267 19 34.1704C19 33.7141 18.595 33.3408 18.1 33.3408H18.091Z" fill="#56A0DD"/>
</svg>
