<svg width="38" height="38" viewBox="0 0 38 38" fill="none" xmlns="http://www.w3.org/2000/svg">
<path fill-rule="evenodd" clip-rule="evenodd" d="M27.51 33.5807H6.9552C6.81771 33.5772 6.68683 33.521 6.58958 33.4238C6.49233 33.3265 6.43614 33.1956 6.43262 33.0582C6.43614 32.9207 6.49233 32.7898 6.58958 32.6925C6.68683 32.5953 6.81771 32.5391 6.9552 32.5356H27.51C27.6475 32.5391 27.7783 32.5953 27.8756 32.6925C27.9728 32.7898 28.029 32.9207 28.0325 33.0582C28.029 33.1956 27.9728 33.3265 27.8756 33.4238C27.7783 33.521 27.6475 33.5772 27.51 33.5807Z" fill="black"/>
<path fill-rule="evenodd" clip-rule="evenodd" d="M30.9938 33.5807H30.297C30.1595 33.5772 30.0286 33.521 29.9314 33.4238C29.8341 33.3265 29.7779 33.1956 29.7744 33.0582C29.7779 32.9207 29.8341 32.7898 29.9314 32.6925C30.0286 32.5953 30.1595 32.5391 30.297 32.5356H30.9938C31.1313 32.5391 31.2621 32.5953 31.3594 32.6925C31.4566 32.7898 31.5128 32.9207 31.5163 33.0582C31.5128 33.1956 31.4566 33.3265 31.3594 33.4238C31.2621 33.521 31.1313 33.5772 30.9938 33.5807Z" fill="black"/>
<path fill-rule="evenodd" clip-rule="evenodd" d="M19.4271 20.6904H10.5084C10.416 20.6904 10.3274 20.7271 10.2621 20.7924C10.1967 20.8578 10.16 20.9464 10.16 21.0388C10.16 21.1312 10.1967 21.2198 10.2621 21.2851C10.3274 21.3505 10.416 21.3872 10.5084 21.3872H19.4271C19.5195 21.3872 19.6081 21.3505 19.6734 21.2851C19.7388 21.2198 19.7755 21.1312 19.7755 21.0388C19.7755 20.9464 19.7388 20.8578 19.6734 20.7924C19.6081 20.7271 19.5195 20.6904 19.4271 20.6904ZM19.4689 17.5549H10.5502C10.4578 17.5549 10.3692 17.5916 10.3039 17.657C10.2385 17.7223 10.2018 17.8109 10.2018 17.9033C10.2018 17.9957 10.2385 18.0843 10.3039 18.1497C10.3692 18.215 10.4578 18.2517 10.5502 18.2517H19.4689C19.5613 18.2517 19.6499 18.215 19.7153 18.1497C19.7806 18.0843 19.8173 17.9957 19.8173 17.9033C19.8173 17.8109 19.7806 17.7223 19.7153 17.657C19.6499 17.5916 19.5613 17.5549 19.4689 17.5549ZM19.8173 19.6452H10.1356C10.0432 19.6452 9.95463 19.682 9.8893 19.7473C9.82396 19.8126 9.78726 19.9012 9.78726 19.9936C9.78726 20.086 9.82396 20.1746 9.8893 20.24C9.95463 20.3053 10.0432 20.342 10.1356 20.342H19.7999C19.8923 20.342 19.9809 20.3053 20.0462 20.24C20.1116 20.1746 20.1483 20.086 20.1483 19.9936C20.1483 19.9012 20.1116 19.8126 20.0462 19.7473C19.9809 19.682 19.8923 19.6452 19.7999 19.6452H19.8173ZM20.1866 18.6001H9.76635C9.67396 18.6001 9.58534 18.6368 9.52001 18.7021C9.45467 18.7675 9.41797 18.8561 9.41797 18.9485C9.41797 19.0409 9.45467 19.1295 9.52001 19.1948C9.58534 19.2602 9.67396 19.2969 9.76635 19.2969H20.1692C20.2616 19.2969 20.3502 19.2602 20.4155 19.1948C20.4808 19.1295 20.5175 19.0409 20.5175 18.9485C20.5175 18.8561 20.4808 18.7675 20.4155 18.7021C20.3502 18.6368 20.2616 18.6001 20.1692 18.6001H20.1866ZM20.1866 18.6001H9.76635C9.67396 18.6001 9.58534 18.6368 9.52001 18.7021C9.45467 18.7675 9.41797 18.8561 9.41797 18.9485C9.41797 19.0409 9.45467 19.1295 9.52001 19.1948C9.58534 19.2602 9.67396 19.2969 9.76635 19.2969H20.1692C20.2616 19.2969 20.3502 19.2602 20.4155 19.1948C20.4808 19.1295 20.5175 19.0409 20.5175 18.9485C20.5175 18.8561 20.4808 18.7675 20.4155 18.7021C20.3502 18.6368 20.2616 18.6001 20.1692 18.6001H20.1866ZM19.8173 19.6452H10.1356C10.0432 19.6452 9.95463 19.682 9.8893 19.7473C9.82396 19.8126 9.78726 19.9012 9.78726 19.9936C9.78726 20.086 9.82396 20.1746 9.8893 20.24C9.95463 20.3053 10.0432 20.342 10.1356 20.342H19.7999C19.8923 20.342 19.9809 20.3053 20.0462 20.24C20.1116 20.1746 20.1483 20.086 20.1483 19.9936C20.1483 19.9012 20.1116 19.8126 20.0462 19.7473C19.9809 19.682 19.8923 19.6452 19.7999 19.6452H19.8173ZM19.4689 17.5549H10.5502C10.4578 17.5549 10.3692 17.5916 10.3039 17.657C10.2385 17.7223 10.2018 17.8109 10.2018 17.9033C10.2018 17.9957 10.2385 18.0843 10.3039 18.1497C10.3692 18.215 10.4578 18.2517 10.5502 18.2517H19.4689C19.5613 18.2517 19.6499 18.215 19.7153 18.1497C19.7806 18.0843 19.8173 17.9957 19.8173 17.9033C19.8173 17.8109 19.7806 17.7223 19.7153 17.657C19.6499 17.5916 19.5613 17.5549 19.4689 17.5549ZM19.4271 20.6904H10.5084C10.416 20.6904 10.3274 20.7271 10.2621 20.7924C10.1967 20.8578 10.16 20.9464 10.16 21.0388C10.16 21.1312 10.1967 21.2198 10.2621 21.2851C10.3274 21.3505 10.416 21.3872 10.5084 21.3872H19.4271C19.5195 21.3872 19.6081 21.3505 19.6734 21.2851C19.7388 21.2198 19.7755 21.1312 19.7755 21.0388C19.7755 20.9464 19.7388 20.8578 19.6734 20.7924C19.6081 20.7271 19.5195 20.6904 19.4271 20.6904ZM19.4271 20.6904H10.5084C10.416 20.6904 10.3274 20.7271 10.2621 20.7924C10.1967 20.8578 10.16 20.9464 10.16 21.0388C10.16 21.1312 10.1967 21.2198 10.2621 21.2851C10.3274 21.3505 10.416 21.3872 10.5084 21.3872H19.4271C19.5195 21.3872 19.6081 21.3505 19.6734 21.2851C19.7388 21.2198 19.7755 21.1312 19.7755 21.0388C19.7755 20.9464 19.7388 20.8578 19.6734 20.7924C19.6081 20.7271 19.5195 20.6904 19.4271 20.6904ZM19.4689 17.5549H10.5502C10.4578 17.5549 10.3692 17.5916 10.3039 17.657C10.2385 17.7223 10.2018 17.8109 10.2018 17.9033C10.2018 17.9957 10.2385 18.0843 10.3039 18.1497C10.3692 18.215 10.4578 18.2517 10.5502 18.2517H19.4689C19.5613 18.2517 19.6499 18.215 19.7153 18.1497C19.7806 18.0843 19.8173 17.9957 19.8173 17.9033C19.8173 17.8109 19.7806 17.7223 19.7153 17.657C19.6499 17.5916 19.5613 17.5549 19.4689 17.5549ZM19.8173 19.6452H10.1356C10.0432 19.6452 9.95463 19.682 9.8893 19.7473C9.82396 19.8126 9.78726 19.9012 9.78726 19.9936C9.78726 20.086 9.82396 20.1746 9.8893 20.24C9.95463 20.3053 10.0432 20.342 10.1356 20.342H19.7999C19.8923 20.342 19.9809 20.3053 20.0462 20.24C20.1116 20.1746 20.1483 20.086 20.1483 19.9936C20.1483 19.9012 20.1116 19.8126 20.0462 19.7473C19.9809 19.682 19.8923 19.6452 19.7999 19.6452H19.8173ZM20.1866 18.6001H9.76635C9.67396 18.6001 9.58534 18.6368 9.52001 18.7021C9.45467 18.7675 9.41797 18.8561 9.41797 18.9485C9.41797 19.0409 9.45467 19.1295 9.52001 19.1948C9.58534 19.2602 9.67396 19.2969 9.76635 19.2969H20.1692C20.2616 19.2969 20.3502 19.2602 20.4155 19.1948C20.4808 19.1295 20.5175 19.0409 20.5175 18.9485C20.5175 18.8561 20.4808 18.7675 20.4155 18.7021C20.3502 18.6368 20.2616 18.6001 20.1692 18.6001H20.1866ZM20.1866 18.6001H9.76635C9.67396 18.6001 9.58534 18.6368 9.52001 18.7021C9.45467 18.7675 9.41797 18.8561 9.41797 18.9485C9.41797 19.0409 9.45467 19.1295 9.52001 19.1948C9.58534 19.2602 9.67396 19.2969 9.76635 19.2969H20.1692C20.2616 19.2969 20.3502 19.2602 20.4155 19.1948C20.4808 19.1295 20.5175 19.0409 20.5175 18.9485C20.5175 18.8561 20.4808 18.7675 20.4155 18.7021C20.3502 18.6368 20.2616 18.6001 20.1692 18.6001H20.1866ZM19.8173 19.6452H10.1356C10.0432 19.6452 9.95463 19.682 9.8893 19.7473C9.82396 19.8126 9.78726 19.9012 9.78726 19.9936C9.78726 20.086 9.82396 20.1746 9.8893 20.24C9.95463 20.3053 10.0432 20.342 10.1356 20.342H19.7999C19.8923 20.342 19.9809 20.3053 20.0462 20.24C20.1116 20.1746 20.1483 20.086 20.1483 19.9936C20.1483 19.9012 20.1116 19.8126 20.0462 19.7473C19.9809 19.682 19.8923 19.6452 19.7999 19.6452H19.8173ZM19.4689 17.5549H10.5502C10.4578 17.5549 10.3692 17.5916 10.3039 17.657C10.2385 17.7223 10.2018 17.8109 10.2018 17.9033C10.2018 17.9957 10.2385 18.0843 10.3039 18.1497C10.3692 18.215 10.4578 18.2517 10.5502 18.2517H19.4689C19.5613 18.2517 19.6499 18.215 19.7153 18.1497C19.7806 18.0843 19.8173 17.9957 19.8173 17.9033C19.8173 17.8109 19.7806 17.7223 19.7153 17.657C19.6499 17.5916 19.5613 17.5549 19.4689 17.5549ZM19.4271 20.6904H10.5084C10.416 20.6904 10.3274 20.7271 10.2621 20.7924C10.1967 20.8578 10.16 20.9464 10.16 21.0388C10.16 21.1312 10.1967 21.2198 10.2621 21.2851C10.3274 21.3505 10.416 21.3872 10.5084 21.3872H19.4271C19.5195 21.3872 19.6081 21.3505 19.6734 21.2851C19.7388 21.2198 19.7755 21.1312 19.7755 21.0388C19.7755 20.9464 19.7388 20.8578 19.6734 20.7924C19.6081 20.7271 19.5195 20.6904 19.4271 20.6904ZM19.4271 20.6904H10.5084C10.416 20.6904 10.3274 20.7271 10.2621 20.7924C10.1967 20.8578 10.16 20.9464 10.16 21.0388C10.16 21.1312 10.1967 21.2198 10.2621 21.2851C10.3274 21.3505 10.416 21.3872 10.5084 21.3872H19.4271C19.5195 21.3872 19.6081 21.3505 19.6734 21.2851C19.7388 21.2198 19.7755 21.1312 19.7755 21.0388C19.7755 20.9464 19.7388 20.8578 19.6734 20.7924C19.6081 20.7271 19.5195 20.6904 19.4271 20.6904ZM19.4689 17.5549H10.5502C10.4578 17.5549 10.3692 17.5916 10.3039 17.657C10.2385 17.7223 10.2018 17.8109 10.2018 17.9033C10.2018 17.9957 10.2385 18.0843 10.3039 18.1497C10.3692 18.215 10.4578 18.2517 10.5502 18.2517H19.4689C19.5613 18.2517 19.6499 18.215 19.7153 18.1497C19.7806 18.0843 19.8173 17.9957 19.8173 17.9033C19.8173 17.8109 19.7806 17.7223 19.7153 17.657C19.6499 17.5916 19.5613 17.5549 19.4689 17.5549ZM19.8173 19.6452H10.1356C10.0432 19.6452 9.95463 19.682 9.8893 19.7473C9.82396 19.8126 9.78726 19.9012 9.78726 19.9936C9.78726 20.086 9.82396 20.1746 9.8893 20.24C9.95463 20.3053 10.0432 20.342 10.1356 20.342H19.7999C19.8923 20.342 19.9809 20.3053 20.0462 20.24C20.1116 20.1746 20.1483 20.086 20.1483 19.9936C20.1483 19.9012 20.1116 19.8126 20.0462 19.7473C19.9809 19.682 19.8923 19.6452 19.7999 19.6452H19.8173ZM20.1866 18.6001H9.76635C9.67396 18.6001 9.58534 18.6368 9.52001 18.7021C9.45467 18.7675 9.41797 18.8561 9.41797 18.9485C9.41797 19.0409 9.45467 19.1295 9.52001 19.1948C9.58534 19.2602 9.67396 19.2969 9.76635 19.2969H20.1692C20.2616 19.2969 20.3502 19.2602 20.4155 19.1948C20.4808 19.1295 20.5175 19.0409 20.5175 18.9485C20.5175 18.8561 20.4808 18.7675 20.4155 18.7021C20.3502 18.6368 20.2616 18.6001 20.1692 18.6001H20.1866ZM19.4271 20.6904H10.5084C10.416 20.6904 10.3274 20.7271 10.2621 20.7924C10.1967 20.8578 10.16 20.9464 10.16 21.0388C10.16 21.1312 10.1967 21.2198 10.2621 21.2851C10.3274 21.3505 10.416 21.3872 10.5084 21.3872H19.4271C19.5195 21.3872 19.6081 21.3505 19.6734 21.2851C19.7388 21.2198 19.7755 21.1312 19.7755 21.0388C19.7755 20.9464 19.7388 20.8578 19.6734 20.7924C19.6081 20.7271 19.5195 20.6904 19.4271 20.6904ZM19.4689 17.5549H10.5502C10.4578 17.5549 10.3692 17.5916 10.3039 17.657C10.2385 17.7223 10.2018 17.8109 10.2018 17.9033C10.2018 17.9957 10.2385 18.0843 10.3039 18.1497C10.3692 18.215 10.4578 18.2517 10.5502 18.2517H19.4689C19.5613 18.2517 19.6499 18.215 19.7153 18.1497C19.7806 18.0843 19.8173 17.9957 19.8173 17.9033C19.8173 17.8109 19.7806 17.7223 19.7153 17.657C19.6499 17.5916 19.5613 17.5549 19.4689 17.5549ZM19.8173 19.6452H10.1356C10.0432 19.6452 9.95463 19.682 9.8893 19.7473C9.82396 19.8126 9.78726 19.9012 9.78726 19.9936C9.78726 20.086 9.82396 20.1746 9.8893 20.24C9.95463 20.3053 10.0432 20.342 10.1356 20.342H19.7999C19.8923 20.342 19.9809 20.3053 20.0462 20.24C20.1116 20.1746 20.1483 20.086 20.1483 19.9936C20.1483 19.9012 20.1116 19.8126 20.0462 19.7473C19.9809 19.682 19.8923 19.6452 19.7999 19.6452H19.8173ZM20.1866 18.6001H9.76635C9.67396 18.6001 9.58534 18.6368 9.52001 18.7021C9.45467 18.7675 9.41797 18.8561 9.41797 18.9485C9.41797 19.0409 9.45467 19.1295 9.52001 19.1948C9.58534 19.2602 9.67396 19.2969 9.76635 19.2969H20.1692C20.2616 19.2969 20.3502 19.2602 20.4155 19.1948C20.4808 19.1295 20.5175 19.0409 20.5175 18.9485C20.5175 18.8561 20.4808 18.7675 20.4155 18.7021C20.3502 18.6368 20.2616 18.6001 20.1692 18.6001H20.1866ZM20.1866 18.6001H9.76635C9.67396 18.6001 9.58534 18.6368 9.52001 18.7021C9.45467 18.7675 9.41797 18.8561 9.41797 18.9485C9.41797 19.0409 9.45467 19.1295 9.52001 19.1948C9.58534 19.2602 9.67396 19.2969 9.76635 19.2969H20.1692C20.2616 19.2969 20.3502 19.2602 20.4155 19.1948C20.4808 19.1295 20.5175 19.0409 20.5175 18.9485C20.5175 18.8561 20.4808 18.7675 20.4155 18.7021C20.3502 18.6368 20.2616 18.6001 20.1692 18.6001H20.1866ZM19.8173 19.6452H10.1356C10.0432 19.6452 9.95463 19.682 9.8893 19.7473C9.82396 19.8126 9.78726 19.9012 9.78726 19.9936C9.78726 20.086 9.82396 20.1746 9.8893 20.24C9.95463 20.3053 10.0432 20.342 10.1356 20.342H19.7999C19.8923 20.342 19.9809 20.3053 20.0462 20.24C20.1116 20.1746 20.1483 20.086 20.1483 19.9936C20.1483 19.9012 20.1116 19.8126 20.0462 19.7473C19.9809 19.682 19.8923 19.6452 19.7999 19.6452H19.8173ZM19.4689 17.5549H10.5502C10.4578 17.5549 10.3692 17.5916 10.3039 17.657C10.2385 17.7223 10.2018 17.8109 10.2018 17.9033C10.2018 17.9957 10.2385 18.0843 10.3039 18.1497C10.3692 18.215 10.4578 18.2517 10.5502 18.2517H19.4689C19.5613 18.2517 19.6499 18.215 19.7153 18.1497C19.7806 18.0843 19.8173 17.9957 19.8173 17.9033C19.8173 17.8109 19.7806 17.7223 19.7153 17.657C19.6499 17.5916 19.5613 17.5549 19.4689 17.5549ZM19.4271 20.6904H10.5084C10.416 20.6904 10.3274 20.7271 10.2621 20.7924C10.1967 20.8578 10.16 20.9464 10.16 21.0388C10.16 21.1312 10.1967 21.2198 10.2621 21.2851C10.3274 21.3505 10.416 21.3872 10.5084 21.3872H19.4271C19.5195 21.3872 19.6081 21.3505 19.6734 21.2851C19.7388 21.2198 19.7755 21.1312 19.7755 21.0388C19.7755 20.9464 19.7388 20.8578 19.6734 20.7924C19.6081 20.7271 19.5195 20.6904 19.4271 20.6904ZM19.4271 20.6904H10.5084C10.416 20.6904 10.3274 20.7271 10.2621 20.7924C10.1967 20.8578 10.16 20.9464 10.16 21.0388C10.16 21.1312 10.1967 21.2198 10.2621 21.2851C10.3274 21.3505 10.416 21.3872 10.5084 21.3872H19.4271C19.5195 21.3872 19.6081 21.3505 19.6734 21.2851C19.7388 21.2198 19.7755 21.1312 19.7755 21.0388C19.7755 20.9464 19.7388 20.8578 19.6734 20.7924C19.6081 20.7271 19.5195 20.6904 19.4271 20.6904ZM19.4689 17.5549H10.5502C10.4578 17.5549 10.3692 17.5916 10.3039 17.657C10.2385 17.7223 10.2018 17.8109 10.2018 17.9033C10.2018 17.9957 10.2385 18.0843 10.3039 18.1497C10.3692 18.215 10.4578 18.2517 10.5502 18.2517H19.4689C19.5613 18.2517 19.6499 18.215 19.7153 18.1497C19.7806 18.0843 19.8173 17.9957 19.8173 17.9033C19.8173 17.8109 19.7806 17.7223 19.7153 17.657C19.6499 17.5916 19.5613 17.5549 19.4689 17.5549ZM19.8173 19.6452H10.1356C10.0432 19.6452 9.95463 19.682 9.8893 19.7473C9.82396 19.8126 9.78726 19.9012 9.78726 19.9936C9.78726 20.086 9.82396 20.1746 9.8893 20.24C9.95463 20.3053 10.0432 20.342 10.1356 20.342H19.7999C19.8923 20.342 19.9809 20.3053 20.0462 20.24C20.1116 20.1746 20.1483 20.086 20.1483 19.9936C20.1483 19.9012 20.1116 19.8126 20.0462 19.7473C19.9809 19.682 19.8923 19.6452 19.7999 19.6452H19.8173ZM20.1866 18.6001H9.76635C9.67396 18.6001 9.58534 18.6368 9.52001 18.7021C9.45467 18.7675 9.41797 18.8561 9.41797 18.9485C9.41797 19.0409 9.45467 19.1295 9.52001 19.1948C9.58534 19.2602 9.67396 19.2969 9.76635 19.2969H20.1692C20.2616 19.2969 20.3502 19.2602 20.4155 19.1948C20.4808 19.1295 20.5175 19.0409 20.5175 18.9485C20.5175 18.8561 20.4808 18.7675 20.4155 18.7021C20.3502 18.6368 20.2616 18.6001 20.1692 18.6001H20.1866ZM20.1866 18.6001H9.76635C9.67396 18.6001 9.58534 18.6368 9.52001 18.7021C9.45467 18.7675 9.41797 18.8561 9.41797 18.9485C9.41797 19.0409 9.45467 19.1295 9.52001 19.1948C9.58534 19.2602 9.67396 19.2969 9.76635 19.2969H20.1692C20.2616 19.2969 20.3502 19.2602 20.4155 19.1948C20.4808 19.1295 20.5175 19.0409 20.5175 18.9485C20.5175 18.8561 20.4808 18.7675 20.4155 18.7021C20.3502 18.6368 20.2616 18.6001 20.1692 18.6001H20.1866ZM19.8173 19.6452H10.1356C10.0432 19.6452 9.95463 19.682 9.8893 19.7473C9.82396 19.8126 9.78726 19.9012 9.78726 19.9936C9.78726 20.086 9.82396 20.1746 9.8893 20.24C9.95463 20.3053 10.0432 20.342 10.1356 20.342H19.7999C19.8923 20.342 19.9809 20.3053 20.0462 20.24C20.1116 20.1746 20.1483 20.086 20.1483 19.9936C20.1483 19.9012 20.1116 19.8126 20.0462 19.7473C19.9809 19.682 19.8923 19.6452 19.7999 19.6452H19.8173ZM19.4689 17.5549H10.5502C10.4578 17.5549 10.3692 17.5916 10.3039 17.657C10.2385 17.7223 10.2018 17.8109 10.2018 17.9033C10.2018 17.9957 10.2385 18.0843 10.3039 18.1497C10.3692 18.215 10.4578 18.2517 10.5502 18.2517H19.4689C19.5613 18.2517 19.6499 18.215 19.7153 18.1497C19.7806 18.0843 19.8173 17.9957 19.8173 17.9033C19.8173 17.8109 19.7806 17.7223 19.7153 17.657C19.6499 17.5916 19.5613 17.5549 19.4689 17.5549ZM19.4271 20.6904H10.5084C10.416 20.6904 10.3274 20.7271 10.2621 20.7924C10.1967 20.8578 10.16 20.9464 10.16 21.0388C10.16 21.1312 10.1967 21.2198 10.2621 21.2851C10.3274 21.3505 10.416 21.3872 10.5084 21.3872H19.4271C19.5195 21.3872 19.6081 21.3505 19.6734 21.2851C19.7388 21.2198 19.7755 21.1312 19.7755 21.0388C19.7755 20.9464 19.7388 20.8578 19.6734 20.7924C19.6081 20.7271 19.5195 20.6904 19.4271 20.6904ZM19.4271 20.6904H10.5084C10.416 20.6904 10.3274 20.7271 10.2621 20.7924C10.1967 20.8578 10.16 20.9464 10.16 21.0388C10.16 21.1312 10.1967 21.2198 10.2621 21.2851C10.3274 21.3505 10.416 21.3872 10.5084 21.3872H19.4271C19.5195 21.3872 19.6081 21.3505 19.6734 21.2851C19.7388 21.2198 19.7755 21.1312 19.7755 21.0388C19.7755 20.9464 19.7388 20.8578 19.6734 20.7924C19.6081 20.7271 19.5195 20.6904 19.4271 20.6904ZM19.4689 17.5549H10.5502C10.4578 17.5549 10.3692 17.5916 10.3039 17.657C10.2385 17.7223 10.2018 17.8109 10.2018 17.9033C10.2018 17.9957 10.2385 18.0843 10.3039 18.1497C10.3692 18.215 10.4578 18.2517 10.5502 18.2517H19.4689C19.5613 18.2517 19.6499 18.215 19.7153 18.1497C19.7806 18.0843 19.8173 17.9957 19.8173 17.9033C19.8173 17.8109 19.7806 17.7223 19.7153 17.657C19.6499 17.5916 19.5613 17.5549 19.4689 17.5549ZM19.8173 19.6452H10.1356C10.0432 19.6452 9.95463 19.682 9.8893 19.7473C9.82396 19.8126 9.78726 19.9012 9.78726 19.9936C9.78726 20.086 9.82396 20.1746 9.8893 20.24C9.95463 20.3053 10.0432 20.342 10.1356 20.342H19.7999C19.8923 20.342 19.9809 20.3053 20.0462 20.24C20.1116 20.1746 20.1483 20.086 20.1483 19.9936C20.1483 19.9012 20.1116 19.8126 20.0462 19.7473C19.9809 19.682 19.8923 19.6452 19.7999 19.6452H19.8173ZM20.1866 18.6001H9.76635C9.67396 18.6001 9.58534 18.6368 9.52001 18.7021C9.45467 18.7675 9.41797 18.8561 9.41797 18.9485C9.41797 19.0409 9.45467 19.1295 9.52001 19.1948C9.58534 19.2602 9.67396 19.2969 9.76635 19.2969H20.1692C20.2616 19.2969 20.3502 19.2602 20.4155 19.1948C20.4808 19.1295 20.5175 19.0409 20.5175 18.9485C20.5175 18.8561 20.4808 18.7675 20.4155 18.7021C20.3502 18.6368 20.2616 18.6001 20.1692 18.6001H20.1866ZM20.1866 18.6001H9.76635C9.67396 18.6001 9.58534 18.6368 9.52001 18.7021C9.45467 18.7675 9.41797 18.8561 9.41797 18.9485C9.41797 19.0409 9.45467 19.1295 9.52001 19.1948C9.58534 19.2602 9.67396 19.2969 9.76635 19.2969H20.1692C20.2616 19.2969 20.3502 19.2602 20.4155 19.1948C20.4808 19.1295 20.5175 19.0409 20.5175 18.9485C20.5175 18.8561 20.4808 18.7675 20.4155 18.7021C20.3502 18.6368 20.2616 18.6001 20.1692 18.6001H20.1866ZM19.8173 19.6452H10.1356C10.0432 19.6452 9.95463 19.682 9.8893 19.7473C9.82396 19.8126 9.78726 19.9012 9.78726 19.9936C9.78726 20.086 9.82396 20.1746 9.8893 20.24C9.95463 20.3053 10.0432 20.342 10.1356 20.342H19.7999C19.8923 20.342 19.9809 20.3053 20.0462 20.24C20.1116 20.1746 20.1483 20.086 20.1483 19.9936C20.1483 19.9012 20.1116 19.8126 20.0462 19.7473C19.9809 19.682 19.8923 19.6452 19.7999 19.6452H19.8173ZM19.4689 17.5549H10.5502C10.4578 17.5549 10.3692 17.5916 10.3039 17.657C10.2385 17.7223 10.2018 17.8109 10.2018 17.9033C10.2018 17.9957 10.2385 18.0843 10.3039 18.1497C10.3692 18.215 10.4578 18.2517 10.5502 18.2517H19.4689C19.5613 18.2517 19.6499 18.215 19.7153 18.1497C19.7806 18.0843 19.8173 17.9957 19.8173 17.9033C19.8173 17.8109 19.7806 17.7223 19.7153 17.657C19.6499 17.5916 19.5613 17.5549 19.4689 17.5549ZM19.4271 20.6904H10.5084C10.416 20.6904 10.3274 20.7271 10.2621 20.7924C10.1967 20.8578 10.16 20.9464 10.16 21.0388C10.16 21.1312 10.1967 21.2198 10.2621 21.2851C10.3274 21.3505 10.416 21.3872 10.5084 21.3872H19.4271C19.5195 21.3872 19.6081 21.3505 19.6734 21.2851C19.7388 21.2198 19.7755 21.1312 19.7755 21.0388C19.7755 20.9464 19.7388 20.8578 19.6734 20.7924C19.6081 20.7271 19.5195 20.6904 19.4271 20.6904Z" fill="black"/>
<path fill-rule="evenodd" clip-rule="evenodd" d="M25.942 10.9356H24.5484V6.75499C24.5484 6.293 24.3649 5.84994 24.0382 5.52326C23.7115 5.19659 23.2685 5.01306 22.8065 5.01306H7.47751C7.01552 5.01306 6.57245 5.19659 6.24578 5.52326C5.9191 5.84994 5.73558 6.293 5.73558 6.75499V10.9356H4.34203C4.06484 10.9356 3.799 11.0457 3.60299 11.2417C3.40699 11.4377 3.29688 11.7036 3.29688 11.9808V14.0711C3.29688 14.3483 3.40699 14.6141 3.60299 14.8101C3.799 15.0061 4.06484 15.1163 4.34203 15.1163H5.73558V25.5678C5.73558 26.0298 5.9191 26.4729 6.24578 26.7996C6.57245 27.1262 7.01552 27.3098 7.47751 27.3098H22.8065C23.2685 27.3098 23.7115 27.1262 24.0382 26.7996C24.3649 26.4729 24.5484 26.0298 24.5484 25.5678V15.1163H25.942C26.2192 15.1163 26.485 15.0061 26.681 14.8101C26.877 14.6141 26.9871 14.3483 26.9871 14.0711V11.9808C26.9871 11.7036 26.877 11.4377 26.681 11.2417C26.485 11.0457 26.2192 10.9356 25.942 10.9356ZM10.9614 25.5678H9.04176C8.88317 25.5699 8.72811 25.521 8.59931 25.4285L8.12202 25.0801C8.03325 25.0161 7.96038 24.9325 7.90904 24.8359C7.85769 24.7392 7.82924 24.6321 7.82589 24.5227V24.3485C7.82589 24.2099 7.88095 24.077 7.97895 23.979C8.07695 23.881 8.20988 23.8259 8.34847 23.8259H10.9614V25.5678ZM16.8839 25.5678H13.0517C12.9593 25.5678 12.8707 25.5311 12.8053 25.4658C12.74 25.4005 12.7033 25.3118 12.7033 25.2194C12.7033 25.1271 12.74 25.0384 12.8053 24.9731C12.8707 24.9078 12.9593 24.8711 13.0517 24.8711H16.8839C16.9763 24.8711 17.0649 24.9078 17.1303 24.9731C17.1956 25.0384 17.2323 25.1271 17.2323 25.2194C17.2323 25.3118 17.1956 25.4005 17.1303 25.4658C17.0649 25.5311 16.9763 25.5678 16.8839 25.5678ZM16.8839 24.5227H13.0517C12.9593 24.5227 12.8707 24.486 12.8053 24.4206C12.74 24.3553 12.7033 24.2667 12.7033 24.1743C12.7033 24.0819 12.74 23.9933 12.8053 23.9279C12.8707 23.8626 12.9593 23.8259 13.0517 23.8259H16.8839C16.9763 23.8259 17.0649 23.8626 17.1303 23.9279C17.1956 23.9933 17.2323 24.0819 17.2323 24.1743C17.2323 24.2667 17.1956 24.3553 17.1303 24.4206C17.0649 24.486 16.9763 24.5227 16.8839 24.5227ZM22.1097 24.5227C22.1064 24.6321 22.0779 24.7392 22.0266 24.8359C21.9752 24.9325 21.9024 25.0161 21.8136 25.0801L21.3363 25.4285C21.2075 25.521 21.0524 25.5699 20.8939 25.5678H18.9742V23.8259H21.5871C21.7257 23.8259 21.8587 23.881 21.9567 23.979C22.0547 24.077 22.1097 24.2099 22.1097 24.3485V24.5227ZM22.4581 21.0737C22.4583 21.1945 22.4261 21.3132 22.3648 21.4174C22.3035 21.5215 22.2154 21.6074 22.1097 21.6659L20.5768 22.5369C20.3186 22.706 20.0144 22.7911 19.7059 22.7807H10.5781C10.2702 22.7866 9.96732 22.7018 9.70718 22.5369L8.17428 21.6659C8.07131 21.6042 7.98546 21.5177 7.9246 21.4142C7.86374 21.3107 7.8298 21.1936 7.82589 21.0737V17.2066C7.82589 16.9294 7.93601 16.6635 8.13201 16.4675C8.32802 16.2715 8.59386 16.1614 8.87105 16.1614H21.4129C21.6901 16.1614 21.956 16.2715 22.152 16.4675C22.348 16.6635 22.4581 16.9294 22.4581 17.2066V21.0737ZM22.4581 13.6182C22.4596 13.7716 22.4085 13.9209 22.3135 14.0413C22.2184 14.1617 22.0851 14.246 21.9355 14.2801L20.5768 15.0466C20.429 15.0868 20.277 15.1101 20.1239 15.1163H10.1601C10.007 15.1101 9.85505 15.0868 9.70718 15.0466L8.17428 14.2801C7.86073 14.2105 7.82589 13.9317 7.82589 13.6182V8.14854C7.82589 7.87134 7.93601 7.6055 8.13201 7.4095C8.32802 7.21349 8.59386 7.10338 8.87105 7.10338H21.4129C21.6901 7.10338 21.956 7.21349 22.152 7.4095C22.348 7.6055 22.4581 7.87134 22.4581 8.14854V13.6182Z" fill="black"/>
<path fill-rule="evenodd" clip-rule="evenodd" d="M20.0195 28.0065H23.155V30.4452C23.155 30.63 23.0816 30.8073 22.9509 30.9379C22.8203 31.0686 22.643 31.142 22.4582 31.142H20.7163C20.5315 31.142 20.3543 31.0686 20.2236 30.9379C20.0929 30.8073 20.0195 30.63 20.0195 30.4452V28.0065Z" fill="black"/>
<path fill-rule="evenodd" clip-rule="evenodd" d="M7.12891 28.0065H10.2644V30.4452C10.2644 30.63 10.191 30.8073 10.0603 30.9379C9.92963 31.0686 9.7524 31.142 9.56761 31.142H7.82568C7.64088 31.142 7.46366 31.0686 7.33299 30.9379C7.20232 30.8073 7.12891 30.63 7.12891 30.4452V28.0065Z" fill="black"/>
<path fill-rule="evenodd" clip-rule="evenodd" d="M19.799 21.0388C19.7991 21.0866 19.7894 21.134 19.7704 21.178C19.7514 21.2219 19.7235 21.2615 19.6885 21.2941C19.6535 21.3268 19.6122 21.352 19.5671 21.368C19.5219 21.384 19.474 21.3905 19.4262 21.3871H10.5076C10.4152 21.3871 10.3266 21.3504 10.2612 21.2851C10.1959 21.2198 10.1592 21.1312 10.1592 21.0388C10.1592 20.9464 10.1959 20.8577 10.2612 20.7924C10.3266 20.7271 10.4152 20.6904 10.5076 20.6904H19.4262C19.474 20.687 19.5219 20.6935 19.5671 20.7095C19.6122 20.7255 19.6535 20.7507 19.6885 20.7834C19.7235 20.8161 19.7514 20.8556 19.7704 20.8995C19.7894 20.9435 19.7991 20.9909 19.799 21.0388Z" fill="white"/>
<path fill-rule="evenodd" clip-rule="evenodd" d="M10.1807 17.9033C10.1806 17.8557 10.1902 17.8086 10.209 17.7649C10.2278 17.7213 10.2554 17.6819 10.29 17.6492C10.3246 17.6166 10.3655 17.5914 10.4102 17.5752C10.4549 17.5589 10.5025 17.552 10.55 17.5549H19.4686C19.561 17.5549 19.6496 17.5916 19.715 17.6569C19.7803 17.7223 19.817 17.8109 19.817 17.9033C19.817 17.9957 19.7803 18.0843 19.715 18.1496C19.6496 18.215 19.561 18.2517 19.4686 18.2517H10.55C10.5025 18.2545 10.4549 18.2476 10.4102 18.2314C10.3655 18.2152 10.3246 18.19 10.29 18.1573C10.2554 18.1247 10.2278 18.0853 10.209 18.0416C10.1902 17.9979 10.1806 17.9508 10.1807 17.9033Z" fill="white"/>
<path fill-rule="evenodd" clip-rule="evenodd" d="M20.168 19.9936C20.1681 20.0412 20.1585 20.0882 20.1397 20.1319C20.1209 20.1756 20.0933 20.215 20.0587 20.2476C20.0241 20.2803 19.9832 20.3055 19.9385 20.3217C19.8938 20.3379 19.8462 20.3448 19.7987 20.342H10.1345C10.0421 20.342 9.95351 20.3053 9.88817 20.24C9.82284 20.1746 9.78613 20.086 9.78613 19.9936C9.78613 19.9012 9.82284 19.8126 9.88817 19.7473C9.95351 19.6819 10.0421 19.6452 10.1345 19.6452H19.7987C19.8462 19.6424 19.8938 19.6493 19.9385 19.6655C19.9832 19.6817 20.0241 19.7069 20.0587 19.7396C20.0933 19.7722 20.1209 19.8116 20.1397 19.8553C20.1585 19.899 20.1681 19.946 20.168 19.9936Z" fill="white"/>
<path fill-rule="evenodd" clip-rule="evenodd" d="M20.541 18.9484C20.5411 18.9963 20.5313 19.0437 20.5123 19.0876C20.4933 19.1316 20.4654 19.1711 20.4305 19.2038C20.3955 19.2365 20.3541 19.2616 20.309 19.2776C20.2639 19.2936 20.2159 19.3002 20.1682 19.2968H9.76538C9.67298 19.2968 9.58437 19.2601 9.51903 19.1948C9.4537 19.1294 9.41699 19.0408 9.41699 18.9484C9.41699 18.856 9.4537 18.7674 9.51903 18.7021C9.58437 18.6367 9.67298 18.6 9.76538 18.6H20.1682C20.2159 18.5967 20.2639 18.6032 20.309 18.6192C20.3541 18.6352 20.3955 18.6603 20.4305 18.693C20.4654 18.7257 20.4933 18.7653 20.5123 18.8092C20.5313 18.8532 20.5411 18.9005 20.541 18.9484Z" fill="white"/>
<path fill-rule="evenodd" clip-rule="evenodd" d="M19.8 21.0388C19.8001 21.0867 19.7904 21.1341 19.7713 21.178C19.7523 21.222 19.7245 21.2615 19.6895 21.2942C19.6545 21.3269 19.6132 21.352 19.568 21.368C19.5229 21.384 19.475 21.3906 19.4272 21.3872H10.5085C10.4161 21.3872 10.3275 21.3505 10.2622 21.2852C10.1969 21.2198 10.1602 21.1312 10.1602 21.0388C10.1602 20.9464 10.1969 20.8578 10.2622 20.7925C10.3275 20.7271 10.4161 20.6904 10.5085 20.6904H19.4272C19.475 20.6871 19.5229 20.6936 19.568 20.7096C19.6132 20.7256 19.6545 20.7507 19.6895 20.7834C19.7245 20.8161 19.7523 20.8557 19.7713 20.8996C19.7904 20.9436 19.8001 20.9909 19.8 21.0388Z" fill="black"/>
<path fill-rule="evenodd" clip-rule="evenodd" d="M19.841 17.9033C19.8411 17.9512 19.8314 17.9986 19.8124 18.0425C19.7934 18.0865 19.7655 18.126 19.7305 18.1587C19.6955 18.1914 19.6542 18.2165 19.6091 18.2325C19.5639 18.2485 19.516 18.2551 19.4682 18.2517H10.5496C10.4572 18.2517 10.3685 18.215 10.3032 18.1497C10.2379 18.0843 10.2012 17.9957 10.2012 17.9033C10.2012 17.8109 10.2379 17.7223 10.3032 17.657C10.3685 17.5916 10.4572 17.5549 10.5496 17.5549H19.4682C19.516 17.5516 19.5639 17.5581 19.6091 17.5741C19.6542 17.5901 19.6955 17.6152 19.7305 17.6479C19.7655 17.6806 19.7934 17.7202 19.8124 17.7641C19.8314 17.8081 19.8411 17.8554 19.841 17.9033Z" fill="black"/>
<path fill-rule="evenodd" clip-rule="evenodd" d="M20.17 19.9936C20.1701 20.0412 20.1604 20.0882 20.1416 20.1319C20.1228 20.1756 20.0953 20.215 20.0607 20.2476C20.0261 20.2803 19.9852 20.3055 19.9404 20.3217C19.8957 20.3379 19.8482 20.3448 19.8007 20.342H10.1365C10.0441 20.342 9.95546 20.3053 9.89013 20.24C9.82479 20.1746 9.78809 20.086 9.78809 19.9936C9.78809 19.9012 9.82479 19.8126 9.89013 19.7473C9.95546 19.6819 10.0441 19.6452 10.1365 19.6452H19.8007C19.8482 19.6424 19.8957 19.6493 19.9404 19.6655C19.9852 19.6817 20.0261 19.7069 20.0607 19.7396C20.0953 19.7722 20.1228 19.8116 20.1416 19.8553C20.1604 19.899 20.1701 19.946 20.17 19.9936Z" fill="black"/>
<path fill-rule="evenodd" clip-rule="evenodd" d="M20.5419 18.9485C20.5421 18.9964 20.5323 19.0437 20.5133 19.0877C20.4943 19.1316 20.4664 19.1712 20.4314 19.2039C20.3964 19.2366 20.3551 19.2617 20.31 19.2777C20.2649 19.2937 20.2169 19.3002 20.1692 19.2969H9.76635C9.67396 19.2969 9.58534 19.2602 9.52001 19.1948C9.45467 19.1295 9.41797 19.0409 9.41797 18.9485C9.41797 18.8561 9.45467 18.7675 9.52001 18.7021C9.58534 18.6368 9.67396 18.6001 9.76635 18.6001H20.1692C20.2169 18.5967 20.2649 18.6033 20.31 18.6193C20.3551 18.6353 20.3964 18.6604 20.4314 18.6931C20.4664 18.7258 20.4943 18.7653 20.5133 18.8093C20.5323 18.8532 20.5421 18.9006 20.5419 18.9485Z" fill="black"/>
<path fill-rule="evenodd" clip-rule="evenodd" d="M32.9097 25.2195C32.9097 25.0347 32.9831 24.8575 33.1137 24.7268C33.2444 24.5961 33.4216 24.5227 33.6064 24.5227H35V25.5679H33.9548V27.1356C33.9567 27.3538 33.9128 27.5699 33.8261 27.77C33.7393 27.9702 33.6115 28.1499 33.451 28.2976C33.2905 28.4454 33.1007 28.5578 32.8941 28.6277C32.6874 28.6976 32.4684 28.7233 32.2512 28.7034C31.8553 28.6488 31.4924 28.4531 31.2293 28.1522C30.9662 27.8514 30.8206 27.4656 30.8193 27.066V25.0209L31.8645 23.9758V25.6724V27.1356C31.8645 27.2742 31.9196 27.4071 32.0176 27.5051C32.1156 27.6032 32.2485 27.6582 32.3871 27.6582C32.5257 27.6582 32.6586 27.6032 32.7566 27.5051C32.8546 27.4071 32.9097 27.2742 32.9097 27.1356V25.2195Z" fill="black"/>
<path fill-rule="evenodd" clip-rule="evenodd" d="M28.4189 19.816C28.3726 19.7589 28.3134 19.7136 28.2462 19.6839C28.1789 19.6543 28.1056 19.641 28.0322 19.6452H25.5935C25.5011 19.6452 25.4125 19.682 25.3472 19.7473C25.2818 19.8126 25.2451 19.9012 25.2451 19.9936V20.342C25.2547 20.4378 25.2996 20.5266 25.3711 20.591C25.4426 20.6554 25.5356 20.6909 25.6318 20.6904H27.3354L28.4189 21.7843L28.0705 23.0176C28.0592 23.0703 28.0534 23.124 28.0531 23.1779C28.0515 23.2498 28.0657 23.3212 28.0949 23.3869C28.1212 23.4528 28.163 23.5114 28.2168 23.5576L29.3247 24.669C29.3894 24.7338 29.4663 24.7851 29.5509 24.8202C29.6354 24.8553 29.7261 24.8733 29.8177 24.8733C29.9092 24.8733 29.9999 24.8553 30.0845 24.8202C30.1691 24.7851 30.2459 24.7338 30.3106 24.669L31.7878 23.1883L28.4189 19.816ZM29.8926 24.0802L29.2272 23.4148L29.3282 23.0211L30.1399 23.8259L29.8926 24.0802Z" fill="black"/>
<path d="M28.0547 11.8928C28.2186 11.8928 28.3516 11.7599 28.3516 11.5959C28.3516 11.432 28.2186 11.2991 28.0547 11.2991C27.8907 11.2991 27.7578 11.432 27.7578 11.5959C27.7578 11.7599 27.8907 11.8928 28.0547 11.8928Z" fill="black"/>
<path fill-rule="evenodd" clip-rule="evenodd" d="M28.0547 11.2991C27.996 11.2991 27.9386 11.3165 27.8898 11.3491C27.8409 11.3817 27.8029 11.4281 27.7804 11.4823C27.7579 11.5366 27.7521 11.5963 27.7635 11.6539C27.775 11.7115 27.8032 11.7643 27.8448 11.8059C27.8863 11.8474 27.9392 11.8757 27.9968 11.8871C28.0544 11.8986 28.114 11.8927 28.1683 11.8702C28.2225 11.8478 28.2689 11.8097 28.3015 11.7609C28.3341 11.7121 28.3516 11.6547 28.3516 11.5959C28.3516 11.5172 28.3203 11.4417 28.2646 11.386C28.2089 11.3303 28.1334 11.2991 28.0547 11.2991Z" fill="black"/>
<path fill-rule="evenodd" clip-rule="evenodd" d="M27.6096 7.12501C27.0211 7.12391 26.4432 7.28188 25.9371 7.5822C25.4309 7.88253 25.0154 8.31405 24.7343 8.83113C24.4533 9.34821 24.3172 9.93164 24.3404 10.5197C24.3637 11.1078 24.5455 11.6786 24.8665 12.1719C25.1636 12.6285 25.5703 13.0035 26.0494 13.2627C26.5285 13.522 27.0648 13.6573 27.6096 13.6563C28.4757 13.6563 29.3063 13.3122 29.9187 12.6998C30.5312 12.0874 30.8752 11.2567 30.8752 10.3906C30.8752 9.52453 30.5312 8.69391 29.9187 8.08148C29.3063 7.46906 28.4757 7.12501 27.6096 7.12501ZM27.6096 12.3381C27.2946 12.3381 26.9926 12.213 26.7699 11.9903C26.5472 11.7676 26.4221 11.4656 26.4221 11.1506C26.4221 10.4945 27.6096 8.18188 27.6096 8.18188C27.6096 8.18188 28.7971 10.4945 28.7971 11.1506C28.7971 11.4656 28.672 11.7676 28.4493 11.9903C28.2266 12.213 27.9245 12.3381 27.6096 12.3381Z" fill="black"/>
<path d="M28.0547 11.8928C28.2186 11.8928 28.3516 11.7599 28.3516 11.5959C28.3516 11.432 28.2186 11.2991 28.0547 11.2991C27.8907 11.2991 27.7578 11.432 27.7578 11.5959C27.7578 11.7599 27.8907 11.8928 28.0547 11.8928Z" fill="white"/>
<path d="M28.0547 11.8928C28.2186 11.8928 28.3516 11.7599 28.3516 11.5959C28.3516 11.432 28.2186 11.2991 28.0547 11.2991C27.8907 11.2991 27.7578 11.432 27.7578 11.5959C27.7578 11.7599 27.8907 11.8928 28.0547 11.8928Z" fill="black"/>
</svg>
