<svg width="42" height="33" viewBox="0 0 42 33" fill="none" xmlns="http://www.w3.org/2000/svg">
<path d="M26.4256 3.97673C26.3469 3.73365 26.193 3.52178 25.986 3.37166C25.779 3.22153 25.5296 3.14092 25.2737 3.14143H22.9133L22.1844 0.901139C22.1056 0.658085 21.9517 0.446212 21.7447 0.295933C21.5378 0.145653 21.2885 0.0646973 21.0326 0.0646973C20.7767 0.0646973 20.5273 0.145653 20.3204 0.295933C20.1134 0.446212 19.9595 0.658085 19.8807 0.901139L19.1518 3.13793H16.7914C16.5355 3.13758 16.286 3.2182 16.0789 3.36822C15.8717 3.51824 15.7175 3.72994 15.6384 3.97292C15.5593 4.2159 15.5593 4.47765 15.6386 4.72059C15.7178 4.96354 15.8721 5.17517 16.0793 5.32509L17.9888 6.70981L17.2592 8.95079C17.1801 9.19355 17.1801 9.45507 17.2591 9.69785C17.3381 9.94062 17.4921 10.1522 17.699 10.3022C17.9059 10.4522 18.155 10.533 18.4107 10.533C18.6665 10.5329 18.9156 10.4521 19.1224 10.302L21.034 8.91863L22.9434 10.3033C23.1503 10.4536 23.3995 10.5345 23.6554 10.5346C23.9112 10.5346 24.1605 10.4538 24.3674 10.3037C24.5743 10.1535 24.7283 9.94179 24.8072 9.69886C24.8862 9.45594 24.886 9.1943 24.8067 8.95149L24.0771 6.71051L25.9865 5.32579C26.1931 5.17609 26.3469 4.9649 26.4258 4.72252C26.5047 4.48015 26.5046 4.21905 26.4256 3.97673ZM22.8741 5.90247C22.7576 5.98696 22.6708 6.10612 22.6263 6.24287C22.5818 6.37961 22.5817 6.52692 22.6262 6.66367L23.3636 8.92982L21.4324 7.53182C21.3159 7.44747 21.1757 7.40206 21.0319 7.40206C20.888 7.40206 20.7478 7.44747 20.6314 7.53182L18.7002 8.92982L19.4375 6.66367C19.482 6.52692 19.482 6.37961 19.4375 6.24287C19.3929 6.10612 19.3062 5.98696 19.1896 5.90247L17.2592 4.50447H19.6455C19.7894 4.50442 19.9297 4.45888 20.0462 4.37438C20.1627 4.28988 20.2494 4.17074 20.2939 4.03404L21.0312 1.7686L21.7685 4.03474C21.813 4.17144 21.8997 4.29058 22.0161 4.37508C22.1326 4.45958 22.2729 4.50512 22.4169 4.50517H24.8032L22.8741 5.90247Z" fill="white"/>
<path d="M12.5749 13.6717C12.7489 13.672 12.9204 13.6312 13.0756 13.5525C13.2307 13.4739 13.365 13.3597 13.4675 13.2193C13.5699 13.079 13.6376 12.9163 13.665 12.7448C13.6924 12.5733 13.6788 12.3977 13.6252 12.2325L13.079 10.5549L14.5081 9.51829C14.6963 9.38192 14.8363 9.18958 14.9082 8.96886C14.98 8.74814 14.9801 8.51036 14.9082 8.28963C14.8364 8.06889 14.6964 7.87655 14.5083 7.74014C14.3202 7.60374 14.0936 7.53029 13.8611 7.53034H12.091L11.5449 5.85275C11.4732 5.63183 11.3332 5.43926 11.1451 5.30268C10.957 5.1661 10.7303 5.09253 10.4977 5.09253C10.2651 5.09253 10.0384 5.1661 9.85032 5.30268C9.66219 5.43926 9.52223 5.63183 9.45055 5.85275L8.90439 7.53034H7.13777C6.90522 7.53014 6.67858 7.60349 6.49037 7.73983C6.30215 7.87618 6.16204 8.06853 6.09011 8.2893C6.01818 8.51006 6.01814 8.7479 6.09 8.96869C6.16185 9.18948 6.30191 9.38188 6.49008 9.51829L7.9192 10.5549L7.37304 12.2325C7.30112 12.4532 7.30105 12.691 7.37284 12.9117C7.44463 13.1325 7.58459 13.3249 7.77266 13.4613C7.96073 13.5977 8.18725 13.6712 8.41975 13.6712C8.65224 13.6712 8.87876 13.5978 9.06684 13.4613L10.496 12.4247L11.9251 13.4613C12.1138 13.5985 12.3414 13.6722 12.5749 13.6717ZM10.0954 11.033L8.9184 11.8872L9.36793 10.506C9.41243 10.3692 9.41241 10.2219 9.36788 10.0852C9.32335 9.94841 9.2366 9.82925 9.12005 9.74476L7.94301 8.89129H9.39734C9.54132 8.89124 9.6816 8.8457 9.79807 8.7612C9.91454 8.67669 10.0012 8.55756 10.0457 8.42086L10.4953 7.03964L10.9448 8.42086C10.9892 8.55762 11.0759 8.67682 11.1924 8.76133C11.3088 8.84585 11.4492 8.89135 11.5932 8.89129H13.0503L11.8733 9.74476C11.7567 9.82925 11.67 9.94841 11.6254 10.0852C11.5809 10.2219 11.5809 10.3692 11.6254 10.506L12.0749 11.8872L10.8979 11.0337C10.7814 10.9494 10.6412 10.9039 10.4974 10.9039C10.3535 10.9039 10.2133 10.9494 10.0968 11.0337L10.0954 11.033Z" fill="white"/>
<path d="M8.34425 16.3763H6.57693L6.03077 14.6987C5.95908 14.4778 5.81914 14.2852 5.631 14.1486C5.44287 14.012 5.21623 13.9385 4.98361 13.9385C4.75099 13.9385 4.52435 14.012 4.33622 14.1486C4.14809 14.2852 4.00814 14.4778 3.93646 14.6987L3.3903 16.3763H1.62438C1.39189 16.3762 1.16535 16.4497 0.977249 16.5861C0.789148 16.7225 0.649142 16.9148 0.577303 17.1356C0.505464 17.3563 0.505483 17.5941 0.577356 17.8148C0.649229 18.0355 0.789266 18.2279 0.977388 18.3642L2.40651 19.4008L1.86035 21.0784C1.78824 21.2992 1.78806 21.5372 1.85985 21.7581C1.93164 21.979 2.0717 22.1715 2.25992 22.308C2.44815 22.4445 2.67486 22.518 2.90751 22.5178C3.14016 22.5177 3.36678 22.444 3.55484 22.3073L4.98396 21.2707L6.41588 22.3045C6.60395 22.4412 6.83057 22.5149 7.06322 22.5151C7.29587 22.5152 7.52257 22.4417 7.7108 22.3052C7.89903 22.1687 8.03909 21.9762 8.11088 21.7553C8.18266 21.5344 8.18249 21.2964 8.11038 21.0756L7.56422 19.398L8.99334 18.3614C9.18151 18.225 9.32157 18.0326 9.39342 17.8118C9.46528 17.591 9.46524 17.3532 9.39332 17.1324C9.32139 16.9117 9.18127 16.7193 8.99305 16.583C8.80484 16.4466 8.5782 16.3733 8.34565 16.3735L8.34425 16.3763ZM6.35987 18.5907C6.24324 18.6751 6.15642 18.7943 6.11188 18.9311C6.06734 19.0678 6.06738 19.2152 6.11199 19.3519L6.56152 20.7331L5.38448 19.879C5.26803 19.7946 5.12784 19.7492 4.98396 19.7492C4.84009 19.7492 4.6999 19.7946 4.58345 19.879L3.405 20.7331L3.85453 19.3519C3.89903 19.2152 3.89901 19.0678 3.85449 18.9311C3.80996 18.7944 3.7232 18.6752 3.60666 18.5907L2.42961 17.7372H3.88394C4.02792 17.7372 4.1682 17.6916 4.28467 17.6071C4.40114 17.5226 4.48783 17.4035 4.53233 17.2668L4.98186 15.8856L5.43139 17.2668C5.47589 17.4035 5.56258 17.5226 5.67905 17.6071C5.79553 17.6916 5.9358 17.7372 6.07978 17.7372H7.53621L6.35987 18.5907Z" fill="white"/>
<path d="M40.3821 16.3763H38.6154L38.0693 14.6987C37.9976 14.4778 37.8576 14.2852 37.6695 14.1486C37.4814 14.012 37.2547 13.9385 37.0221 13.9385C36.7895 13.9385 36.5629 14.012 36.3747 14.1486C36.1866 14.2852 36.0466 14.4778 35.975 14.6987L35.4288 16.3763H33.6622C33.4296 16.3761 33.203 16.4494 33.0148 16.5858C32.8266 16.7221 32.6864 16.9145 32.6145 17.1352C32.5426 17.356 32.5426 17.5938 32.6144 17.8146C32.6863 18.0354 32.8263 18.2278 33.0145 18.3642L34.4443 19.4008L33.8982 21.0784C33.826 21.2992 33.8259 21.5372 33.8977 21.7581C33.9694 21.979 34.1095 22.1715 34.2977 22.308C34.4859 22.4445 34.7127 22.518 34.9453 22.5178C35.178 22.5177 35.4046 22.444 35.5927 22.3073L37.0218 21.2707L38.4516 22.3073C38.6396 22.4443 38.8664 22.5182 39.0992 22.5185C39.332 22.5188 39.5589 22.4454 39.7472 22.3088C39.9356 22.1723 40.0758 21.9796 40.1476 21.7585C40.2194 21.5375 40.2191 21.2993 40.1468 21.0784L39.6006 19.4008L41.0304 18.3642C41.2186 18.2278 41.3587 18.0354 41.4305 17.8146C41.5024 17.5938 41.5023 17.356 41.4304 17.1352C41.3585 16.9145 41.2184 16.7221 41.0302 16.5858C40.8419 16.4494 40.6153 16.3761 40.3828 16.3763H40.3821ZM38.3977 18.5907C38.2811 18.6752 38.1944 18.7944 38.1499 18.9311C38.1053 19.0679 38.1053 19.2152 38.1498 19.3519L38.5993 20.7331L37.4223 19.879C37.3058 19.7946 37.1656 19.7492 37.0218 19.7492C36.8779 19.7492 36.7377 19.7946 36.6213 19.879L35.4442 20.7331L35.8937 19.3519C35.9382 19.2152 35.9382 19.0679 35.8937 18.9311C35.8492 18.7944 35.7624 18.6752 35.6459 18.5907L34.4688 17.7372H35.9231C36.0671 17.7372 36.2074 17.6916 36.3239 17.6071C36.4403 17.5226 36.527 17.4035 36.5715 17.2668L37.0211 15.8856L37.4706 17.2668C37.515 17.4036 37.6017 17.5228 37.7182 17.6073C37.8347 17.6918 37.975 17.7373 38.119 17.7372H39.5775L38.3977 18.5907Z" fill="white"/>
<path d="M33.6466 13.671C33.8205 13.6713 33.9921 13.6304 34.1473 13.5518C34.3024 13.4732 34.4367 13.359 34.5392 13.2186C34.6416 13.0782 34.7093 12.9156 34.7367 12.7441C34.7641 12.5726 34.7505 12.397 34.6969 12.2317L34.1507 10.5542L35.5805 9.51755C35.7687 9.38114 35.9087 9.18875 35.9806 8.96796C36.0525 8.74717 36.0524 8.50933 35.9805 8.28856C35.9086 8.0678 35.7685 7.87544 35.5802 7.73909C35.392 7.60274 35.1654 7.52941 34.9328 7.5296H33.1662L32.6201 5.852C32.5484 5.63109 32.4084 5.43853 32.2203 5.30195C32.0322 5.16537 31.8055 5.0918 31.5729 5.0918C31.3403 5.0918 31.1136 5.16537 30.9255 5.30195C30.7374 5.43853 30.5974 5.63109 30.5257 5.852L29.9796 7.5296H28.213C27.9804 7.52941 27.7538 7.60274 27.5656 7.73909C27.3773 7.87544 27.2372 8.0678 27.1653 8.28856C27.0934 8.50933 27.0933 8.74717 27.1652 8.96796C27.2371 9.18875 27.3771 9.38114 27.5653 9.51755L28.9951 10.5542L28.4489 12.2317C28.3768 12.4526 28.3767 12.6905 28.4484 12.9114C28.5202 13.1323 28.6603 13.3248 28.8485 13.4613C29.0367 13.5978 29.2634 13.6713 29.4961 13.6712C29.7287 13.671 29.9554 13.5973 30.1434 13.4606L31.5733 12.424L33.0031 13.4606C33.1901 13.5965 33.4152 13.6701 33.6466 13.671ZM31.1692 11.0323L29.9922 11.8865L30.4417 10.5052C30.4862 10.3685 30.4862 10.2212 30.4417 10.0844C30.3971 9.94768 30.3104 9.82852 30.1938 9.74402L29.0168 8.89054H30.4711C30.6151 8.8906 30.7555 8.84511 30.872 8.76059C30.9884 8.67607 31.0751 8.55688 31.1195 8.42013L31.569 7.03891L32.0186 8.42013C32.0631 8.55683 32.1498 8.67596 32.2662 8.76046C32.3827 8.84497 32.523 8.8905 32.667 8.89054H34.1248L32.9477 9.74402C32.8312 9.82852 32.7445 9.94768 32.6999 10.0844C32.6554 10.2212 32.6554 10.3685 32.6999 10.5052L33.1494 11.8865L31.9724 11.0323C31.856 10.9478 31.7157 10.9023 31.5718 10.9023C31.4279 10.9023 31.2877 10.9478 31.1713 11.0323H31.1692Z" fill="white"/>
<path d="M29.2139 19.8572H24.442V16.4544C24.4409 15.7329 24.1533 15.0412 23.6422 14.531C23.1311 14.0208 22.4382 13.7337 21.7154 13.7325H20.3521C20.188 13.7326 20.0294 13.7917 19.9054 13.899C19.7814 14.0064 19.7004 14.1547 19.6771 14.3169L19.4264 16.0644C19.3122 16.8594 19.0125 17.6165 18.5514 18.2747C18.0903 18.9329 17.4808 19.4737 16.772 19.8537H11.4896C11.3087 19.8537 11.1353 19.9254 11.0074 20.0531C10.8795 20.1807 10.8076 20.3539 10.8076 20.5345V30.0611C10.8076 30.2417 10.8795 30.4148 11.0074 30.5425C11.1353 30.6702 11.3087 30.7419 11.4896 30.7419H16.737L17.183 31.039C18.2249 31.7338 19.45 32.1041 20.7029 32.1029H28.5312C28.9261 32.1031 29.3127 31.9892 29.6441 31.7748C29.9755 31.5604 30.2376 31.2548 30.3987 30.8948C30.5598 30.5349 30.613 30.1361 30.5518 29.7466C30.4907 29.3571 30.3178 28.9937 30.0542 28.7002C30.3903 28.3263 30.5762 27.8416 30.5762 27.3392C30.5762 26.8368 30.3903 26.3522 30.0542 25.9783C30.3393 25.6609 30.5176 25.2623 30.564 24.8385C30.6103 24.4146 30.5224 23.987 30.3125 23.6157C30.6851 23.3779 30.9704 23.026 31.1257 22.6127C31.2811 22.1994 31.2981 21.747 31.1742 21.3233C31.0503 20.8996 30.7921 20.5274 30.4385 20.2624C30.0848 19.9974 29.6547 19.854 29.2125 19.8537L29.2139 19.8572ZM12.1723 21.2181H16.2622V29.3838H12.1723V21.2181ZM29.2139 22.5791H28.5319C28.3549 22.5847 28.187 22.6589 28.0638 22.7859C27.9406 22.9129 27.8718 23.0827 27.8718 23.2595C27.8718 23.4363 27.9406 23.6062 28.0638 23.7332C28.187 23.8602 28.3549 23.9343 28.5319 23.94C28.6233 23.9371 28.7143 23.9525 28.7995 23.9854C28.8848 24.0183 28.9626 24.0679 29.0282 24.1314C29.0939 24.1949 29.1461 24.2709 29.1817 24.3549C29.2174 24.4389 29.2358 24.5292 29.2358 24.6205C29.2358 24.7117 29.2174 24.802 29.1817 24.886C29.1461 24.9701 29.0939 25.0461 29.0282 25.1095C28.9626 25.173 28.8848 25.2227 28.7995 25.2555C28.7143 25.2884 28.6233 25.3039 28.5319 25.3009C28.4406 25.298 28.3495 25.3135 28.2643 25.3463C28.179 25.3792 28.1012 25.4289 28.0356 25.4924C27.9699 25.5558 27.9177 25.6318 27.8821 25.7158C27.8464 25.7999 27.8281 25.8902 27.8281 25.9814C27.8281 26.0727 27.8464 26.163 27.8821 26.247C27.9177 26.331 27.9699 26.407 28.0356 26.4705C28.1012 26.534 28.179 26.5836 28.2643 26.6165C28.3495 26.6494 28.4406 26.6648 28.5319 26.6619C28.6233 26.659 28.7143 26.6744 28.7995 26.7073C28.8848 26.7402 28.9626 26.7898 29.0282 26.8533C29.0939 26.9168 29.1461 26.9928 29.1817 27.0768C29.2174 27.1608 29.2358 27.2511 29.2358 27.3424C29.2358 27.4336 29.2174 27.5239 29.1817 27.6079C29.1461 27.6919 29.0939 27.7679 29.0282 27.8314C28.9626 27.8949 28.8848 27.9446 28.7995 27.9774C28.7143 28.0103 28.6233 28.0258 28.5319 28.0228C28.4406 28.0199 28.3495 28.0353 28.2643 28.0682C28.179 28.1011 28.1012 28.1508 28.0356 28.2142C27.9699 28.2777 27.9177 28.3537 27.8821 28.4377C27.8464 28.5218 27.8281 28.6121 27.8281 28.7033C27.8281 28.7945 27.8464 28.8849 27.8821 28.9689C27.9177 29.0529 27.9699 29.1289 28.0356 29.1924C28.1012 29.2559 28.179 29.3055 28.2643 29.3384C28.3495 29.3713 28.4406 29.3867 28.5319 29.3838C28.6233 29.3809 28.7143 29.3963 28.7995 29.4292C28.8848 29.4621 28.9626 29.5117 29.0282 29.5752C29.0939 29.6387 29.1461 29.7147 29.1817 29.7987C29.2174 29.8827 29.2358 29.973 29.2358 30.0643C29.2358 30.1555 29.2174 30.2458 29.1817 30.3298C29.1461 30.4138 29.0939 30.4898 29.0282 30.5533C28.9626 30.6168 28.8848 30.6665 28.7995 30.6993C28.7143 30.7322 28.6233 30.7476 28.5319 30.7447H20.7036C19.7195 30.7444 18.7577 30.4524 17.9399 29.9059L17.6255 29.6962V20.9378C18.4699 20.4442 19.1919 19.7668 19.7374 18.9559C20.283 18.1449 20.6382 17.2216 20.7764 16.2545L20.9431 15.0879H21.7133C22.0748 15.0883 22.4213 15.2318 22.6769 15.4869C22.9325 15.7421 23.0762 16.088 23.0766 16.4488V20.5317C23.0766 20.7123 23.1485 20.8854 23.2764 21.0131C23.4043 21.1408 23.5777 21.2125 23.7586 21.2125H29.2118C29.3888 21.2182 29.5567 21.2923 29.6799 21.4193C29.8031 21.5463 29.872 21.7162 29.872 21.893C29.872 22.0698 29.8031 22.2396 29.6799 22.3666C29.5567 22.4936 29.3888 22.5678 29.2118 22.5735L29.2139 22.5791Z" fill="white"/>
</svg>
