<svg width="25" height="25" viewBox="0 0 25 25" fill="none" xmlns="http://www.w3.org/2000/svg">
<path d="M22.8027 7.60639H15.6841L13.3638 5.28705C12.0391 3.96137 9.93896 3.84711 8.47705 5.01264L3.2041 9.23139C3.03125 9.37104 2.92969 9.581 2.92969 9.80366V18.5927C2.92969 18.8896 3.1084 19.1572 3.3833 19.27L3.6377 19.3745C5.96973 20.3134 8.44287 20.79 10.9863 20.79H13.916C15.1274 20.79 16.1133 19.8041 16.1133 18.5927C16.1133 18.3076 16.0591 18.0341 15.959 17.7831C16.8916 17.5292 17.5781 16.6743 17.5781 15.663C17.5781 15.3779 17.5239 15.1044 17.4238 14.8535C17.8384 14.7407 18.2041 14.5092 18.4819 14.1982C18.8311 13.809 19.043 13.2954 19.043 12.7333C19.043 12.4765 18.9985 12.2299 18.917 12.0009H22.8027C24.0142 12.0009 25 11.0151 25 9.80366C25 8.59223 24.0142 7.60639 22.8027 7.60639Z" fill="#FEC478"/>
<path d="M17.4238 14.8535C17.5239 15.1044 17.5781 15.3779 17.5781 15.663C17.5781 16.6743 16.8916 17.5292 15.959 17.7831C16.0591 18.0341 16.1133 18.3076 16.1133 18.5927C16.1133 19.8041 15.1274 20.79 13.916 20.79H10.9863C8.44287 20.79 5.96973 20.3134 3.6377 19.3745L3.3833 19.27C3.1084 19.1572 2.92969 18.8896 2.92969 18.5927V14.1982H18.4819C18.2041 14.5093 17.8384 14.7407 17.4238 14.8535Z" fill="#FEB756"/>
<path d="M2.19727 20.79H0.732422C0.327588 20.79 0 20.4625 0 20.0576V8.33887C0 7.93403 0.327588 7.60645 0.732422 7.60645H2.19727C3.40889 7.60645 4.39453 8.59209 4.39453 9.80371V18.5928C4.39453 19.8044 3.40889 20.79 2.19727 20.79Z" fill="#56A0DD"/>
<path d="M0 14.1982V20.0576C0 20.4624 0.327588 20.79 0.732422 20.79H2.19727C3.40889 20.79 4.39453 19.8043 4.39453 18.5927V14.1982H0Z" fill="#091A26"/>
</svg>
