<svg width="40" height="40" viewBox="0 0 40 40" fill="none" xmlns="http://www.w3.org/2000/svg">
<path d="M1.34961 6.94371C1.34961 5.54961 1.90437 4.21261 2.89185 3.22684C3.87933 2.24106 5.21864 1.68726 6.61515 1.68726C8.01166 1.68726 9.35097 2.24106 10.3385 3.22684C11.3259 4.21261 11.8807 5.54961 11.8807 6.94371C11.8807 9.84665 6.61515 15.2038 6.61515 15.2038C6.61515 15.2038 1.34961 9.84665 1.34961 6.94371Z" stroke="white" stroke-width="2.5" stroke-miterlimit="10" stroke-linecap="round" stroke-linejoin="round"/>
<path d="M7.87286 13.8311C9.33139 14.1414 10.3761 14.9746 10.3761 15.9546C10.3761 17.1988 8.6921 18.2075 6.61529 18.2075C4.53848 18.2075 2.85449 17.1988 2.85449 15.9546C2.85449 14.976 3.8992 14.1414 5.35773 13.8311" stroke="white" stroke-width="2.5" stroke-miterlimit="10" stroke-linecap="round" stroke-linejoin="round"/>
<path d="M4.3584 6.94379C4.3584 6.49821 4.49076 6.06264 4.73873 5.69216C4.98671 5.32168 5.33917 5.03292 5.75154 4.86241C6.1639 4.69189 6.61766 4.64728 7.05543 4.73421C7.4932 4.82113 7.89532 5.0357 8.21093 5.35077C8.52654 5.66584 8.74148 6.06726 8.82856 6.50427C8.91563 6.94129 8.87094 7.39426 8.70013 7.80592C8.52933 8.21758 8.24007 8.56943 7.86895 8.81698C7.49783 9.06452 7.06151 9.19665 6.61516 9.19665C6.01663 9.19665 5.44261 8.9593 5.01939 8.5368C4.59616 8.11431 4.3584 7.54128 4.3584 6.94379Z" stroke="white" stroke-width="2.5" stroke-miterlimit="10" stroke-linecap="round" stroke-linejoin="round"/>
<path d="M16.0176 15.9545H18.2737" stroke="white" stroke-width="2.5" stroke-miterlimit="10" stroke-linecap="round" stroke-linejoin="round"/>
<path d="M21.2832 15.9545H23.5393" stroke="white" stroke-width="2.5" stroke-miterlimit="10" stroke-linecap="round" stroke-linejoin="round"/>
<path d="M26.5488 15.9545H28.8049" stroke="white" stroke-width="2.5" stroke-miterlimit="10" stroke-linecap="round" stroke-linejoin="round"/>
<path d="M16.0176 23.4639H18.2737" stroke="white" stroke-width="2.5" stroke-miterlimit="10" stroke-linecap="round" stroke-linejoin="round"/>
<path d="M10.752 23.4639H13.0081" stroke="white" stroke-width="2.5" stroke-miterlimit="10" stroke-linecap="round" stroke-linejoin="round"/>
<path d="M21.2832 23.4639H23.5393" stroke="white" stroke-width="2.5" stroke-miterlimit="10" stroke-linecap="round" stroke-linejoin="round"/>
<path d="M16.0176 30.9725H18.2737" stroke="white" stroke-width="2.5" stroke-miterlimit="10" stroke-linecap="round" stroke-linejoin="round"/>
<path d="M10.752 30.9725H13.0081" stroke="white" stroke-width="2.5" stroke-miterlimit="10" stroke-linecap="round" stroke-linejoin="round"/>
<path d="M21.2832 30.9725H23.5393" stroke="white" stroke-width="2.5" stroke-miterlimit="10" stroke-linecap="round" stroke-linejoin="round"/>
<path d="M26.5488 23.4639H28.8049" stroke="white" stroke-width="2.5" stroke-miterlimit="10" stroke-linecap="round" stroke-linejoin="round"/>
<path d="M31.8145 15.9545C32.812 15.9545 33.7686 16.3501 34.474 17.0542C35.1793 17.7583 35.5756 18.7133 35.5756 19.7091C35.5756 20.7049 35.1793 21.6599 34.474 22.3641C33.7686 23.0682 32.812 23.4638 31.8145 23.4638" stroke="white" stroke-width="2.5" stroke-miterlimit="10" stroke-linecap="round" stroke-linejoin="round"/>
<path d="M7.74357 23.4637C6.74605 23.4637 5.78939 23.8593 5.08404 24.5635C4.37868 25.2676 3.98242 26.2226 3.98242 27.2184C3.98242 28.2142 4.37868 29.1692 5.08404 29.8734C5.78939 30.5775 6.74605 30.9731 7.74357 30.9731" stroke="white" stroke-width="2.5" stroke-miterlimit="10" stroke-linecap="round" stroke-linejoin="round"/>
<path d="M28.4688 36.9859V30.2553C28.4688 29.8585 28.6266 29.4781 28.9076 29.1975C29.1887 28.917 29.5698 28.7594 29.9672 28.7594H36.7095C37.1069 28.7594 37.488 28.917 37.769 29.1975C38.05 29.4781 38.2079 29.8585 38.2079 30.2553V36.9859C38.2079 37.3826 38.05 37.7631 37.769 38.0436C37.488 38.3241 37.1069 38.4817 36.7095 38.4817H29.9672C29.5698 38.4817 29.1887 38.3241 28.9076 38.0436C28.6266 37.7631 28.4688 37.3826 28.4688 36.9859Z" stroke="white" stroke-width="2.5" stroke-miterlimit="10" stroke-linecap="round" stroke-linejoin="round"/>
<path d="M35.2185 28.7594V33.9956L33.3378 32.4941L31.457 33.9956V28.7594" stroke="white" stroke-width="2.5" stroke-miterlimit="10" stroke-linecap="round" stroke-linejoin="round"/>
</svg>
